<svg width="2048" height="1264" viewBox="0 0 2048 1264" fill="none" xmlns="http://www.w3.org/2000/svg">
<g clip-path="url(#clip0_106_19)">
<rect width="2048" height="1264" fill="url(#paint0_linear_106_19)"/>
<path d="M207.855 1084.2L244.974 1040.75L270.737 1091.9L207.855 1084.2Z" stroke="white"/>
<path d="M249.275 1040.22L301.966 1031.91L292.806 1090.63L249.275 1040.22Z" fill="white" stroke="white"/>
<path d="M244.847 1128.74L281.966 1085.29L307.729 1136.44L244.847 1128.74Z" stroke="white"/>
<path d="M298.371 1111.8L335.489 1068.35L361.253 1119.5L298.371 1111.8Z" stroke="white"/>
<path d="M309.871 1007.7L353.484 1040.18L312.177 1078.53L309.871 1007.7Z" stroke="white"/>
<path d="M314.36 1181.81L320.184 1122.65L369.067 1144.31L314.36 1181.81Z" fill="white" stroke="white"/>
<path d="M197.112 1091.83L249.568 1099.06L227.164 1153.48L197.112 1091.83Z" fill="white" stroke="white"/>
<path d="M229.894 1167.87L276.411 1138.02L287.614 1195.72L229.894 1167.87Z" stroke="white"/>
<path d="M494.588 1085.52L518.05 1057.42L534.334 1090.5L494.588 1085.52Z" stroke="white"/>
<path d="M521.189 1056.88L554.492 1051.51L548.703 1089.48L521.189 1056.88Z" fill="white" stroke="white"/>
<path d="M518.346 1114.78L541.808 1086.68L558.092 1119.76L518.346 1114.78Z" stroke="white"/>
<path d="M552.721 1103.65L576.183 1075.55L592.468 1108.63L552.721 1103.65Z" stroke="white"/>
<path d="M559.958 1035.74L587.51 1056.74L561.415 1081.52L559.958 1035.74Z" stroke="white"/>
<path d="M562.849 1149.44L566.531 1111.18L597.429 1125.19L562.849 1149.44Z" fill="white" stroke="white"/>
<path d="M487.651 1090.89L520.8 1095.56L506.643 1130.75L487.651 1090.89Z" fill="white" stroke="white"/>
<path d="M508.759 1140.61L538.162 1121.31L545.243 1158.62L508.759 1140.61Z" stroke="white"/>
<path d="M334.588 529.518L358.05 501.415L374.334 534.497L334.588 529.518Z" stroke="white"/>
<path d="M361.189 500.879L394.492 495.507L388.703 533.477L361.189 500.879Z" fill="white" stroke="white"/>
<path d="M358.346 558.784L381.808 530.681L398.092 563.763L358.346 558.784Z" stroke="white"/>
<path d="M392.721 547.654L416.183 519.551L432.468 552.633L392.721 547.654Z" stroke="white"/>
<path d="M399.958 479.74L427.51 500.738L401.415 525.525L399.958 479.74Z" stroke="white"/>
<path d="M402.849 593.438L406.531 555.181L437.429 569.186L402.849 593.438Z" fill="white" stroke="white"/>
<path d="M327.651 534.886L360.8 539.564L346.643 574.748L327.651 534.886Z" fill="white" stroke="white"/>
<path d="M348.759 584.612L378.162 565.308L385.243 602.622L348.759 584.612Z" stroke="white"/>
<path d="M437.588 486.518L461.05 458.415L477.334 491.497L437.588 486.518Z" stroke="white"/>
<path d="M464.189 457.879L497.492 452.507L491.703 490.477L464.189 457.879Z" fill="white" stroke="white"/>
<path d="M461.346 515.784L484.808 487.681L501.092 520.763L461.346 515.784Z" stroke="white"/>
<path d="M495.721 504.654L519.183 476.551L535.468 509.633L495.721 504.654Z" stroke="white"/>
<path d="M502.958 436.74L530.51 457.738L504.415 482.525L502.958 436.74Z" stroke="white"/>
<path d="M505.849 550.438L509.531 512.181L540.429 526.186L505.849 550.438Z" fill="white" stroke="white"/>
<path d="M430.651 491.886L463.8 496.564L449.643 531.748L430.651 491.886Z" fill="white" stroke="white"/>
<path d="M451.759 541.612L481.162 522.308L488.243 559.622L451.759 541.612Z" stroke="white"/>
<path d="M275.588 398.518L299.05 370.415L315.334 403.497L275.588 398.518Z" stroke="white"/>
<path d="M302.189 369.879L335.492 364.507L329.703 402.477L302.189 369.879Z" fill="white" stroke="white"/>
<path d="M299.346 427.784L322.808 399.681L339.092 432.763L299.346 427.784Z" stroke="white"/>
<path d="M333.721 416.654L357.183 388.551L373.468 421.633L333.721 416.654Z" stroke="white"/>
<path d="M340.958 348.74L368.51 369.738L342.415 394.525L340.958 348.74Z" stroke="white"/>
<path d="M343.849 462.438L347.531 424.181L378.429 438.186L343.849 462.438Z" fill="white" stroke="white"/>
<path d="M268.651 403.886L301.8 408.564L287.643 443.748L268.651 403.886Z" fill="white" stroke="white"/>
<path d="M289.759 453.612L319.162 434.308L326.243 471.622L289.759 453.612Z" stroke="white"/>
<path d="M261.735 501.945L276.696 481.959L287.081 505.487L261.735 501.945Z" stroke="white"/>
<path d="M279.052 481.368L300.298 477.545L296.605 504.56L279.052 481.368Z" fill="white" stroke="white"/>
<path d="M277.205 523.199L292.166 503.213L302.551 526.74L277.205 523.199Z" stroke="white"/>
<path d="M299.589 515.116L314.551 495.13L324.935 518.658L299.589 515.116Z" stroke="white"/>
<path d="M304.204 466.259L321.737 481.161L305.131 498.754L304.204 466.259Z" stroke="white"/>
<path d="M306.067 548.157L308.416 520.933L328.131 530.899L306.067 548.157Z" fill="white" stroke="white"/>
<path d="M257.198 506.154L278.329 509.479L269.304 534.492L257.198 506.154Z" fill="white" stroke="white"/>
<path d="M270.969 542.055L289.726 528.321L294.243 554.868L270.969 542.055Z" stroke="white"/>
<path d="M298.224 590.716L308.084 576.582L314.927 593.221L298.224 590.716Z" stroke="white"/>
<path d="M309.967 575.949L323.983 573.243L321.547 592.368L309.967 575.949Z" fill="white" stroke="white"/>
<path d="M308.722 606.192L318.581 592.058L325.425 608.696L308.722 606.192Z" stroke="white"/>
<path d="M323.911 600.307L333.771 586.173L340.614 602.811L323.911 600.307Z" stroke="white"/>
<path d="M326.951 565.191L338.471 575.698L327.56 588.102L326.951 565.191Z" stroke="white"/>
<path d="M328.196 624.161L329.746 604.886L342.755 611.942L328.196 624.161Z" fill="white" stroke="white"/>
<path d="M295.124 594.085L309.047 596.436L303.101 614.122L295.124 594.085Z" fill="white" stroke="white"/>
<path d="M304.494 620.02L316.864 610.3L319.844 629.088L304.494 620.02Z" stroke="white"/>
<path d="M4.22379 596.716L14.0837 582.582L20.9273 599.221L4.22379 596.716Z" stroke="white"/>
<path d="M15.9671 581.949L29.9835 579.243L27.5469 598.368L15.9671 581.949Z" fill="white" stroke="white"/>
<path d="M14.7215 612.192L24.5814 598.058L31.4251 614.696L14.7215 612.192Z" stroke="white"/>
<path d="M29.9108 606.307L39.7707 592.173L46.6144 608.811L29.9108 606.307Z" stroke="white"/>
<path d="M32.951 571.191L44.4713 581.698L33.5602 594.102L32.951 571.191Z" stroke="white"/>
<path d="M34.1964 630.161L35.7463 610.886L48.7546 617.942L34.1964 630.161Z" fill="white" stroke="white"/>
<path d="M1.1239 600.085L15.0471 602.436L9.10065 620.122L1.1239 600.085Z" fill="white" stroke="white"/>
<path d="M10.4941 626.02L22.8644 616.3L25.8438 635.088L10.4941 626.02Z" stroke="white"/>
<path d="M10.7346 875.945L25.696 855.959L36.0805 879.487L10.7346 875.945Z" stroke="white"/>
<path d="M28.0524 855.368L49.2981 851.545L45.6047 878.56L28.0524 855.368Z" fill="white" stroke="white"/>
<path d="M26.205 897.199L41.1663 877.213L51.5509 900.74L26.205 897.199Z" stroke="white"/>
<path d="M48.5892 889.116L63.5505 869.13L73.9351 892.658L48.5892 889.116Z" stroke="white"/>
<path d="M53.2037 840.259L70.7366 855.161L54.1308 872.754L53.2037 840.259Z" stroke="white"/>
<path d="M55.0672 922.157L57.4161 894.933L77.1309 904.899L55.0672 922.157Z" fill="white" stroke="white"/>
<path d="M6.19827 880.154L27.3288 883.479L18.3041 908.492L6.19827 880.154Z" fill="white" stroke="white"/>
<path d="M19.9693 916.055L38.7256 902.321L43.2429 928.868L19.9693 916.055Z" stroke="white"/>
<path d="M161.735 1025.95L176.696 1005.96L187.081 1029.49L161.735 1025.95Z" stroke="white"/>
<path d="M179.052 1005.37L200.298 1001.55L196.605 1028.56L179.052 1005.37Z" fill="white" stroke="white"/>
<path d="M177.205 1047.2L192.166 1027.21L202.551 1050.74L177.205 1047.2Z" stroke="white"/>
<path d="M199.589 1039.12L214.551 1019.13L224.935 1042.66L199.589 1039.12Z" stroke="white"/>
<path d="M204.204 990.259L221.737 1005.16L205.131 1022.75L204.204 990.259Z" stroke="white"/>
<path d="M206.067 1072.16L208.416 1044.93L228.131 1054.9L206.067 1072.16Z" fill="white" stroke="white"/>
<path d="M157.198 1030.15L178.329 1033.48L169.304 1058.49L157.198 1030.15Z" fill="white" stroke="white"/>
<path d="M170.969 1066.05L189.726 1052.32L194.243 1078.87L170.969 1066.05Z" stroke="white"/>
<path d="M215.735 760.945L230.696 740.959L241.081 764.487L215.735 760.945Z" stroke="white"/>
<path d="M233.052 740.368L254.298 736.545L250.605 763.56L233.052 740.368Z" fill="white" stroke="white"/>
<path d="M231.205 782.199L246.166 762.213L256.551 785.74L231.205 782.199Z" stroke="white"/>
<path d="M253.589 774.116L268.551 754.13L278.935 777.658L253.589 774.116Z" stroke="white"/>
<path d="M258.204 725.259L275.737 740.161L259.131 757.754L258.204 725.259Z" stroke="white"/>
<path d="M260.067 807.157L262.416 779.933L282.131 789.899L260.067 807.157Z" fill="white" stroke="white"/>
<path d="M211.198 765.154L232.329 768.479L223.304 793.492L211.198 765.154Z" fill="white" stroke="white"/>
<path d="M224.969 801.055L243.726 787.321L248.243 813.868L224.969 801.055Z" stroke="white"/>
<path d="M-3.26537 190.945L11.696 170.959L22.0805 194.487L-3.26537 190.945Z" stroke="white"/>
<path d="M14.0524 170.368L35.2981 166.545L31.6047 193.56L14.0524 170.368Z" fill="white" stroke="white"/>
<path d="M12.205 212.199L27.1663 192.213L37.5509 215.74L12.205 212.199Z" stroke="white"/>
<path d="M34.5892 204.116L49.5505 184.13L59.9351 207.658L34.5892 204.116Z" stroke="white"/>
<path d="M39.2037 155.259L56.7366 170.161L40.1308 187.754L39.2037 155.259Z" stroke="white"/>
<path d="M41.0672 237.157L43.4161 209.933L63.1309 219.899L41.0672 237.157Z" fill="white" stroke="white"/>
<path d="M-7.80173 195.154L13.3288 198.479L4.30413 223.492L-7.80173 195.154Z" fill="white" stroke="white"/>
<path d="M5.96929 231.055L24.7256 217.321L29.2429 243.868L5.96929 231.055Z" stroke="white"/>
<path d="M53.7346 555.945L68.696 535.959L79.0805 559.487L53.7346 555.945Z" stroke="white"/>
<path d="M71.0524 535.368L92.2981 531.545L88.6047 558.56L71.0524 535.368Z" fill="white" stroke="white"/>
<path d="M69.205 577.199L84.1663 557.213L94.5509 580.74L69.205 577.199Z" stroke="white"/>
<path d="M91.5892 569.116L106.551 549.13L116.935 572.658L91.5892 569.116Z" stroke="white"/>
<path d="M96.2037 520.259L113.737 535.161L97.1308 552.754L96.2037 520.259Z" stroke="white"/>
<path d="M98.0672 602.157L100.416 574.933L120.131 584.899L98.0672 602.157Z" fill="white" stroke="white"/>
<path d="M49.1983 560.154L70.3288 563.479L61.3041 588.492L49.1983 560.154Z" fill="white" stroke="white"/>
<path d="M62.9693 596.055L81.7256 582.321L86.2429 608.868L62.9693 596.055Z" stroke="white"/>
<path d="M-26.2654 364.945L-11.304 344.959L-0.919478 368.487L-26.2654 364.945Z" stroke="white"/>
<path d="M-8.94764 344.368L12.2981 340.545L8.60473 367.56L-8.94764 344.368Z" fill="white" stroke="white"/>
<path d="M-10.795 386.199L4.1663 366.213L14.5509 389.74L-10.795 386.199Z" stroke="white"/>
<path d="M11.5892 378.116L26.5505 358.13L36.9351 381.658L11.5892 378.116Z" stroke="white"/>
<path d="M16.2037 329.259L33.7366 344.161L17.1308 361.754L16.2037 329.259Z" stroke="white"/>
<path d="M18.0672 411.157L20.4161 383.933L40.1309 393.899L18.0672 411.157Z" fill="white" stroke="white"/>
<path d="M-17.0307 405.055L1.72558 391.321L6.24294 417.868L-17.0307 405.055Z" stroke="white"/>
<path d="M378.588 374.518L402.05 346.415L418.334 379.497L378.588 374.518Z" stroke="white"/>
<path d="M405.189 345.879L438.492 340.507L432.703 378.477L405.189 345.879Z" fill="white" stroke="white"/>
<path d="M402.346 403.784L425.808 375.681L442.092 408.763L402.346 403.784Z" stroke="white"/>
<path d="M436.721 392.654L460.183 364.551L476.468 397.633L436.721 392.654Z" stroke="white"/>
<path d="M443.958 324.74L471.51 345.738L445.415 370.525L443.958 324.74Z" stroke="white"/>
<path d="M446.849 438.438L450.531 400.181L481.429 414.186L446.849 438.438Z" fill="white" stroke="white"/>
<path d="M371.651 379.886L404.8 384.564L390.643 419.748L371.651 379.886Z" fill="white" stroke="white"/>
<path d="M392.759 429.612L422.162 410.308L429.243 447.622L392.759 429.612Z" stroke="white"/>
<path d="M66.5875 965.518L90.0496 937.415L106.334 970.497L66.5875 965.518Z" stroke="white"/>
<path d="M93.1889 936.879L126.492 931.507L120.703 969.477L93.1889 936.879Z" fill="white" stroke="white"/>
<path d="M90.3456 994.784L113.808 966.681L130.092 999.763L90.3456 994.784Z" stroke="white"/>
<path d="M124.721 983.654L148.183 955.551L164.468 988.633L124.721 983.654Z" stroke="white"/>
<path d="M131.958 915.74L159.51 936.738L133.415 961.525L131.958 915.74Z" stroke="white"/>
<path d="M134.849 1029.44L138.531 991.181L169.429 1005.19L134.849 1029.44Z" fill="white" stroke="white"/>
<path d="M59.6511 970.886L92.8004 975.564L78.6426 1010.75L59.6511 970.886Z" fill="white" stroke="white"/>
<path d="M80.759 1020.61L110.162 1001.31L117.243 1038.62L80.759 1020.61Z" stroke="white"/>
<path d="M46.5875 108.518L70.0496 80.4151L86.3344 113.497L46.5875 108.518Z" stroke="white"/>
<path d="M73.1889 79.879L106.492 74.5066L100.703 112.477L73.1889 79.879Z" fill="white" stroke="white"/>
<path d="M70.3456 137.784L93.8076 109.681L110.092 142.763L70.3456 137.784Z" stroke="white"/>
<path d="M104.721 126.654L128.183 98.5513L144.468 131.633L104.721 126.654Z" stroke="white"/>
<path d="M111.958 58.7402L139.51 79.7378L113.415 104.525L111.958 58.7402Z" stroke="white"/>
<path d="M114.849 172.438L118.531 134.181L149.429 148.186L114.849 172.438Z" fill="white" stroke="white"/>
<path d="M39.6511 113.886L72.8004 118.564L58.6426 153.748L39.6511 113.886Z" fill="white" stroke="white"/>
<path d="M60.759 163.612L90.1618 144.308L97.2433 181.622L60.759 163.612Z" stroke="white"/>
<path d="M-9.41247 457.518L14.0496 429.415L30.3344 462.497L-9.41247 457.518Z" stroke="white"/>
<path d="M17.1888 428.879L50.4924 423.507L44.7029 461.477L17.1888 428.879Z" fill="white" stroke="white"/>
<path d="M14.3456 486.784L37.8076 458.681L54.0925 491.763L14.3456 486.784Z" stroke="white"/>
<path d="M48.7213 475.654L72.1834 447.551L88.4682 480.633L48.7213 475.654Z" stroke="white"/>
<path d="M55.9581 407.74L83.5095 428.738L57.415 453.525L55.9581 407.74Z" stroke="white"/>
<path d="M58.8492 521.438L62.5305 483.181L93.4287 497.186L58.8492 521.438Z" fill="white" stroke="white"/>
<path d="M-16.3489 462.886L16.8004 467.564L2.64263 502.748L-16.3489 462.886Z" fill="white" stroke="white"/>
<path d="M4.75898 512.612L34.1618 493.308L41.2433 530.622L4.75898 512.612Z" stroke="white"/>
<path d="M43.5875 655.518L67.0496 627.415L83.3344 660.497L43.5875 655.518Z" stroke="white"/>
<path d="M70.1889 626.879L103.492 621.507L97.7029 659.477L70.1889 626.879Z" fill="white" stroke="white"/>
<path d="M67.3456 684.784L90.8076 656.681L107.092 689.763L67.3456 684.784Z" stroke="white"/>
<path d="M101.721 673.654L125.183 645.551L141.468 678.633L101.721 673.654Z" stroke="white"/>
<path d="M108.958 605.74L136.51 626.738L110.415 651.525L108.958 605.74Z" stroke="white"/>
<path d="M111.849 719.438L115.531 681.181L146.429 695.186L111.849 719.438Z" fill="white" stroke="white"/>
<path d="M36.6511 660.886L69.8004 665.564L55.6426 700.748L36.6511 660.886Z" fill="white" stroke="white"/>
<path d="M57.759 710.612L87.1618 691.308L94.2433 728.622L57.759 710.612Z" stroke="white"/>
<path d="M383.588 1136.52L407.05 1108.42L423.334 1141.5L383.588 1136.52Z" stroke="white"/>
<path d="M410.189 1107.88L443.492 1102.51L437.703 1140.48L410.189 1107.88Z" fill="white" stroke="white"/>
<path d="M407.346 1165.78L430.808 1137.68L447.092 1170.76L407.346 1165.78Z" stroke="white"/>
<path d="M441.721 1154.65L465.183 1126.55L481.468 1159.63L441.721 1154.65Z" stroke="white"/>
<path d="M448.958 1086.74L476.51 1107.74L450.415 1132.52L448.958 1086.74Z" stroke="white"/>
<path d="M451.849 1200.44L455.531 1162.18L486.429 1176.19L451.849 1200.44Z" fill="white" stroke="white"/>
<path d="M376.651 1141.89L409.8 1146.56L395.643 1181.75L376.651 1141.89Z" fill="white" stroke="white"/>
<path d="M397.759 1191.61L427.162 1172.31L434.243 1209.62L397.759 1191.61Z" stroke="white"/>
<path d="M612.588 1085.52L636.05 1057.42L652.334 1090.5L612.588 1085.52Z" stroke="white"/>
<path d="M639.189 1056.88L672.492 1051.51L666.703 1089.48L639.189 1056.88Z" fill="white" stroke="white"/>
<path d="M636.346 1114.78L659.808 1086.68L676.092 1119.76L636.346 1114.78Z" stroke="white"/>
<path d="M670.721 1103.65L694.183 1075.55L710.468 1108.63L670.721 1103.65Z" stroke="white"/>
<path d="M677.958 1035.74L705.51 1056.74L679.415 1081.52L677.958 1035.74Z" stroke="white"/>
<path d="M680.849 1149.44L684.531 1111.18L715.429 1125.19L680.849 1149.44Z" fill="white" stroke="white"/>
<path d="M605.651 1090.89L638.8 1095.56L624.643 1130.75L605.651 1090.89Z" fill="white" stroke="white"/>
<path d="M626.759 1140.61L656.162 1121.31L663.243 1158.62L626.759 1140.61Z" stroke="white"/>
<path d="M352.855 976.204L389.974 932.751L415.737 983.903L352.855 976.204Z" stroke="white"/>
<path d="M394.275 932.222L446.966 923.915L437.806 982.629L394.275 932.222Z" fill="white" stroke="white"/>
<path d="M389.847 1020.74L426.966 977.287L452.729 1028.44L389.847 1020.74Z" stroke="white"/>
<path d="M443.371 1003.8L480.489 960.35L506.253 1011.5L443.371 1003.8Z" stroke="white"/>
<path d="M454.871 899.696L498.484 932.181L457.177 970.53L454.871 899.696Z" stroke="white"/>
<path d="M459.36 1073.81L465.184 1014.65L514.067 1036.31L459.36 1073.81Z" fill="white" stroke="white"/>
<path d="M342.112 983.827L394.568 991.061L372.164 1045.48L342.112 983.827Z" fill="white" stroke="white"/>
<path d="M374.894 1059.87L421.411 1030.02L432.614 1087.72L374.894 1059.87Z" stroke="white"/>
<path d="M172.855 902.204L209.974 858.751L235.737 909.903L172.855 902.204Z" stroke="white"/>
<path d="M214.275 858.222L266.966 849.915L257.806 908.629L214.275 858.222Z" fill="white" stroke="white"/>
<path d="M209.847 946.74L246.966 903.287L272.729 954.439L209.847 946.74Z" stroke="white"/>
<path d="M263.371 929.803L300.489 886.35L326.253 937.502L263.371 929.803Z" stroke="white"/>
<path d="M274.871 825.696L318.484 858.181L277.177 896.53L274.871 825.696Z" stroke="white"/>
<path d="M279.36 999.807L285.184 940.654L334.067 962.308L279.36 999.807Z" fill="white" stroke="white"/>
<path d="M162.112 909.827L214.568 917.061L192.164 971.476L162.112 909.827Z" fill="white" stroke="white"/>
<path d="M194.894 985.869L241.411 956.022L252.614 1013.72L194.894 985.869Z" stroke="white"/>
<path d="M146.855 609.204L183.974 565.751L209.738 616.903L146.855 609.204Z" stroke="white"/>
<path d="M188.275 565.222L240.966 556.915L231.806 615.629L188.275 565.222Z" fill="white" stroke="white"/>
<path d="M183.847 653.74L220.966 610.287L246.729 661.439L183.847 653.74Z" stroke="white"/>
<path d="M237.371 636.803L274.489 593.35L300.253 644.502L237.371 636.803Z" stroke="white"/>
<path d="M248.871 532.696L292.484 565.181L251.177 603.53L248.871 532.696Z" stroke="white"/>
<path d="M253.36 706.807L259.184 647.654L308.067 669.308L253.36 706.807Z" fill="white" stroke="white"/>
<path d="M136.112 616.827L188.568 624.061L166.164 678.476L136.112 616.827Z" fill="white" stroke="white"/>
<path d="M168.894 692.869L215.411 663.022L226.614 720.718L168.894 692.869Z" stroke="white"/>
<path d="M97.8553 443.204L134.974 399.751L160.738 450.903L97.8553 443.204Z" stroke="white"/>
<path d="M139.275 399.222L191.966 390.915L182.806 449.629L139.275 399.222Z" fill="white" stroke="white"/>
<path d="M134.847 487.74L171.966 444.287L197.729 495.439L134.847 487.74Z" stroke="white"/>
<path d="M188.371 470.803L225.489 427.35L251.253 478.502L188.371 470.803Z" stroke="white"/>
<path d="M199.871 366.696L243.484 399.181L202.177 437.53L199.871 366.696Z" stroke="white"/>
<path d="M204.36 540.807L210.184 481.654L259.067 503.308L204.36 540.807Z" fill="white" stroke="white"/>
<path d="M87.1115 450.827L139.568 458.061L117.164 512.476L87.1115 450.827Z" fill="white" stroke="white"/>
<path d="M119.894 526.869L166.411 497.022L177.614 554.718L119.894 526.869Z" stroke="white"/>
<path d="M151.855 86.2043L188.974 42.7512L214.738 93.9034L151.855 86.2043Z" stroke="white"/>
<path d="M193.275 42.2224L245.966 33.9149L236.806 92.6286L193.275 42.2224Z" fill="white" stroke="white"/>
<path d="M188.847 130.74L225.966 87.2866L251.729 138.439L188.847 130.74Z" stroke="white"/>
<path d="M242.371 113.803L279.489 70.3499L305.253 121.502L242.371 113.803Z" stroke="white"/>
<path d="M253.871 9.69564L297.484 42.1812L256.177 80.5297L253.871 9.69564Z" stroke="white"/>
<path d="M258.36 183.807L264.184 124.654L313.067 146.308L258.36 183.807Z" fill="white" stroke="white"/>
<path d="M141.112 93.8269L193.568 101.061L171.164 155.476L141.112 93.8269Z" fill="white" stroke="white"/>
<path d="M173.894 169.869L220.411 140.022L231.614 197.718L173.894 169.869Z" stroke="white"/>
</g>
<defs>
<linearGradient id="paint0_linear_106_19" x1="1024" y1="0" x2="1024" y2="1264" gradientUnits="userSpaceOnUse">
<stop stop-color="#1F1E24"/>
<stop offset="0.0001" stop-color="#6A6A6A"/>
<stop offset="0.0002" stop-color="#0E0D15"/>
<stop offset="1" stop-color="#1F1E24"/>
</linearGradient>
<clipPath id="clip0_106_19">
<rect width="2048" height="1264" fill="white"/>
</clipPath>
</defs>
</svg>
