<svg width="1134" height="1134" fill="none" xmlns="http://www.w3.org/2000/svg"><path d="m382.83 783.427-56.147-472.354 255.721 78.525L382.83 783.427Z" fill="#26CB63"/><path d="m421.206 591.305-94.523-280.232 409.748 123.386-315.225 156.846Z" fill="#177E3D"/><path d="m374.536 552.293-47.853-241.22 214.473 64.093-166.62 177.127Z" fill="#051B0D"/><path d="m560.033 673.171-33 .056-.179-93.09 33.273-.057c9.363-.016 17.427 1.834 24.192 5.55 6.765 3.685 11.972 8.994 15.622 15.928 3.68 6.933 5.529 15.233 5.548 24.899.018 9.697-1.799 18.034-5.452 25.01-3.623 6.975-8.84 12.333-15.651 16.072-6.781 3.739-14.898 5.616-24.353 5.632Zm-13.35-16.841 12.499-.021c5.819-.01 10.711-1.049 14.676-3.116 3.996-2.098 6.99-5.33 8.982-9.697 2.022-4.397 3.026-10.066 3.012-17.005-.013-6.879-1.039-12.499-3.077-16.859-2.009-4.36-5-7.567-8.974-9.621-3.973-2.054-8.869-3.076-14.687-3.066l-12.546.022.115 59.363Zm73.475 16.739-.179-93.091 62.727-.107.031 16.227-43.045.074.043 22.181 39.818-.067.031 16.227-39.818.068.043 22.227 43.227-.074.031 16.228-62.909.107Zm95.014-93.253 22.636 70.689.864-.002 22.409-70.765 21.818-.038-31.912 93.146-25.363.043-32.316-93.036 21.864-.037Z" fill="#fff"/></svg>