<svg width="2048" height="1264" viewBox="0 0 2048 1264" fill="none" xmlns="http://www.w3.org/2000/svg">
<rect width="2048" height="1264" fill="url(#paint0_linear_1_69)"/>
<path d="M920.673 452.578L770.344 739.012L728.893 395.099L920.673 452.578Z" stroke="white" stroke-width="23"/>
<path d="M1035.17 486.56L804.707 597.313L736.059 398.639L1035.17 486.56Z" stroke="white" stroke-width="26"/>
<path d="M932.213 640.962C932.213 645.544 931.449 649.789 929.922 653.697C928.395 657.561 926.126 660.907 923.116 663.737C920.106 666.567 916.355 668.769 911.863 670.341C907.371 671.913 902.16 672.699 896.23 672.699H887.808V701H871.097V612.931H896.904C902.609 612.931 907.641 613.56 911.998 614.817C916.4 616.03 920.084 617.827 923.049 620.208C926.059 622.589 928.327 625.531 929.854 629.035C931.427 632.494 932.213 636.47 932.213 640.962ZM914.828 642.107C914.828 639.771 914.446 637.66 913.683 635.773C912.964 633.842 911.841 632.202 910.313 630.854C908.831 629.507 906.944 628.474 904.653 627.755C902.362 627.036 899.645 626.677 896.5 626.677H887.808V658.953H897.039C899.914 658.953 902.452 658.571 904.653 657.808C906.854 656.999 908.696 655.854 910.179 654.371C911.706 652.889 912.852 651.114 913.615 649.048C914.424 646.981 914.828 644.668 914.828 642.107ZM991.308 659.155C991.397 656.595 991.263 654.416 990.903 652.619C990.589 650.822 990.05 649.34 989.286 648.172C988.567 647.004 987.669 646.15 986.591 645.611C985.513 645.072 984.277 644.803 982.885 644.803C980.459 644.803 977.943 645.813 975.338 647.835C972.777 649.812 969.947 653.091 966.848 657.673V701H950.002V632.539H964.894L965.5 642.512C966.623 640.76 967.881 639.188 969.273 637.795C970.711 636.402 972.283 635.212 973.99 634.224C975.742 633.19 977.674 632.404 979.785 631.865C981.896 631.326 984.21 631.057 986.726 631.057C990.185 631.057 993.239 631.663 995.89 632.876C998.585 634.044 1000.83 635.796 1002.63 638.132C1004.47 640.468 1005.82 643.41 1006.67 646.959C1007.57 650.463 1007.95 654.528 1007.82 659.155H991.308ZM1084.77 666.23C1084.77 671.621 1084 676.562 1082.48 681.055C1080.95 685.502 1078.75 689.32 1075.87 692.51C1073 695.699 1069.47 698.17 1065.29 699.922C1061.12 701.674 1056.35 702.55 1051.01 702.55C1045.93 702.55 1041.4 701.809 1037.4 700.326C1033.4 698.844 1030.01 696.643 1027.22 693.723C1024.44 690.758 1022.3 687.074 1020.82 682.672C1019.34 678.225 1018.6 673.059 1018.6 667.174C1018.6 661.738 1019.36 656.797 1020.89 652.35C1022.46 647.902 1024.68 644.106 1027.56 640.962C1030.48 637.817 1034.03 635.392 1038.21 633.685C1042.38 631.933 1047.1 631.057 1052.36 631.057C1057.48 631.057 1062.04 631.82 1066.04 633.348C1070.03 634.83 1073.42 637.054 1076.21 640.019C1079 642.983 1081.11 646.667 1082.54 651.069C1084.03 655.427 1084.77 660.48 1084.77 666.23ZM1067.65 666.635C1067.65 659.537 1066.3 654.214 1063.61 650.665C1060.96 647.071 1057.03 645.274 1051.82 645.274C1048.94 645.274 1046.49 645.836 1044.47 646.959C1042.45 648.082 1040.79 649.632 1039.49 651.608C1038.18 653.54 1037.22 655.809 1036.59 658.414C1036 661.02 1035.71 663.805 1035.71 666.77C1035.71 673.912 1037.15 679.303 1040.03 682.941C1042.9 686.535 1046.83 688.332 1051.82 688.332C1054.56 688.332 1056.94 687.793 1058.96 686.715C1060.98 685.592 1062.62 684.064 1063.88 682.133C1065.14 680.156 1066.08 677.843 1066.71 675.192C1067.34 672.542 1067.65 669.689 1067.65 666.635ZM1149.12 699.046C1149.12 704.167 1148.35 708.614 1146.83 712.388C1145.34 716.206 1143.19 719.351 1140.36 721.821C1137.57 724.337 1134.2 726.201 1130.25 727.414C1126.34 728.672 1121.96 729.301 1117.11 729.301C1113.16 729.301 1109.47 728.964 1106.06 728.29C1102.65 727.616 1099.84 726.808 1097.64 725.864V710.771C1098.9 711.444 1100.31 712.096 1101.88 712.725C1103.5 713.398 1105.16 713.982 1106.87 714.477C1108.62 715.016 1110.4 715.42 1112.19 715.689C1113.99 716.004 1115.76 716.161 1117.52 716.161C1122.5 716.161 1126.23 714.724 1128.7 711.849C1131.17 708.974 1132.41 704.751 1132.41 699.181V645.342H1099.86V632.539H1149.12V699.046ZM1150.47 613.807C1150.47 615.289 1150.2 616.682 1149.66 617.984C1149.12 619.287 1148.35 620.433 1147.37 621.421C1146.42 622.364 1145.28 623.128 1143.93 623.712C1142.63 624.251 1141.21 624.521 1139.68 624.521C1138.16 624.521 1136.74 624.251 1135.44 623.712C1134.14 623.128 1132.99 622.364 1132 621.421C1131.06 620.433 1130.32 619.287 1129.78 617.984C1129.24 616.682 1128.97 615.289 1128.97 613.807C1128.97 612.324 1129.24 610.932 1129.78 609.629C1130.32 608.326 1131.06 607.181 1132 606.192C1132.99 605.204 1134.14 604.44 1135.44 603.901C1136.74 603.317 1138.16 603.025 1139.68 603.025C1141.21 603.025 1142.63 603.317 1143.93 603.901C1145.28 604.44 1146.42 605.204 1147.37 606.192C1148.35 607.181 1149.12 608.326 1149.66 609.629C1150.2 610.932 1150.47 612.324 1150.47 613.807ZM1234.49 661.514C1234.49 662.637 1234.45 664.097 1234.36 665.894C1234.31 667.69 1234.22 669.375 1234.09 670.947H1189.08C1189.08 673.957 1189.53 676.607 1190.42 678.898C1191.37 681.189 1192.67 683.121 1194.33 684.693C1196.04 686.221 1198.06 687.389 1200.4 688.197C1202.78 689.006 1205.41 689.41 1208.28 689.41C1211.6 689.41 1215.15 689.163 1218.93 688.669C1222.75 688.13 1226.7 687.276 1230.79 686.108V699.181C1229.03 699.675 1227.12 700.124 1225.06 700.528C1222.99 700.933 1220.88 701.292 1218.72 701.606C1216.57 701.921 1214.39 702.146 1212.19 702.28C1209.99 702.46 1207.85 702.55 1205.79 702.55C1200.58 702.55 1195.9 701.809 1191.77 700.326C1187.64 698.844 1184.13 696.665 1181.26 693.79C1178.38 690.87 1176.18 687.276 1174.66 683.009C1173.13 678.741 1172.37 673.8 1172.37 668.185C1172.37 662.614 1173.13 657.561 1174.66 653.023C1176.18 648.441 1178.34 644.533 1181.12 641.299C1183.91 638.02 1187.28 635.504 1191.23 633.752C1195.23 631.955 1199.68 631.057 1204.57 631.057C1209.43 631.057 1213.72 631.82 1217.44 633.348C1221.17 634.83 1224.29 636.919 1226.81 639.614C1229.33 642.31 1231.24 645.521 1232.54 649.25C1233.84 652.979 1234.49 657.066 1234.49 661.514ZM1217.78 659.155C1217.83 656.46 1217.49 654.124 1216.77 652.147C1216.05 650.126 1215.06 648.464 1213.81 647.161C1212.59 645.858 1211.16 644.893 1209.49 644.264C1207.88 643.635 1206.12 643.32 1204.24 643.32C1200.1 643.32 1196.71 644.713 1194.06 647.498C1191.41 650.238 1189.84 654.124 1189.35 659.155H1217.78ZM1306.12 698.372C1302.89 699.675 1299.54 700.641 1296.08 701.27C1292.62 701.898 1289 702.213 1285.23 702.213C1279.8 702.213 1274.92 701.472 1270.61 699.989C1266.3 698.507 1262.64 696.306 1259.63 693.386C1256.62 690.466 1254.3 686.85 1252.69 682.537C1251.11 678.225 1250.33 673.238 1250.33 667.578C1250.33 662.098 1251.18 657.134 1252.89 652.687C1254.64 648.239 1257.09 644.443 1260.23 641.299C1263.38 638.154 1267.15 635.729 1271.55 634.021C1276 632.314 1280.94 631.461 1286.38 631.461C1290.82 631.461 1294.55 631.708 1297.56 632.202C1300.62 632.651 1303.36 633.235 1305.78 633.954V649.924C1303 648.531 1299.97 647.453 1296.69 646.689C1293.45 645.926 1290.38 645.544 1287.46 645.544C1284.4 645.544 1281.66 646.061 1279.23 647.094C1276.81 648.127 1274.76 649.564 1273.1 651.406C1271.44 653.248 1270.16 655.494 1269.26 658.145C1268.41 660.75 1267.98 663.625 1267.98 666.77C1267.98 670.049 1268.45 672.991 1269.4 675.597C1270.34 678.202 1271.67 680.426 1273.37 682.268C1275.12 684.064 1277.21 685.457 1279.64 686.445C1282.06 687.389 1284.76 687.86 1287.72 687.86C1289.16 687.86 1290.67 687.771 1292.24 687.591C1293.86 687.366 1295.45 687.074 1297.02 686.715C1298.64 686.311 1300.21 685.861 1301.74 685.367C1303.31 684.873 1304.77 684.334 1306.12 683.75V698.372ZM1383.07 700.326C1380.11 701 1377.12 701.539 1374.11 701.943C1371.1 702.348 1368.25 702.55 1365.55 702.55C1361.06 702.55 1357.17 702.078 1353.89 701.135C1350.66 700.191 1347.96 698.754 1345.81 696.822C1343.7 694.891 1342.12 692.442 1341.09 689.478C1340.1 686.468 1339.61 682.896 1339.61 678.764V645.342H1321.21V632.539H1339.61V615.02L1356.46 610.64V632.539H1383.07V645.342H1356.46V677.551C1356.46 681.459 1357.35 684.424 1359.15 686.445C1360.95 688.422 1363.96 689.41 1368.18 689.41C1370.88 689.41 1373.5 689.186 1376.06 688.736C1378.62 688.287 1380.96 687.771 1383.07 687.187V700.326Z" fill="white"/>
<defs>
<linearGradient id="paint0_linear_1_69" x1="1024" y1="0" x2="1024" y2="1264" gradientUnits="userSpaceOnUse">
<stop stop-color="#42075D"/>
<stop offset="0.4375" stop-color="#5A0482"/>
<stop offset="1" stop-color="#4A1861"/>
</linearGradient>
</defs>
</svg>
