<svg width="2048" height="1264" viewBox="0 0 2048 1264" fill="none" xmlns="http://www.w3.org/2000/svg">
<rect width="2048" height="1264" fill="url(#paint0_linear_1_69)"/>
<path d="M864.673 470.578L714.344 757.012L672.893 413.099L864.673 470.578Z" stroke="white" stroke-width="23"/>
<path d="M979.173 504.56L748.707 615.312L680.059 416.639L979.173 504.56Z" stroke="white" stroke-width="26"/>
<path d="M871.213 687.962C871.213 692.544 870.449 696.789 868.922 700.697C867.395 704.561 865.126 707.907 862.116 710.737C859.106 713.567 855.355 715.769 850.863 717.341C846.371 718.913 841.16 719.699 835.23 719.699H826.808V748H810.097V659.931H835.904C841.609 659.931 846.641 660.56 850.998 661.817C855.4 663.03 859.084 664.827 862.049 667.208C865.059 669.589 867.327 672.531 868.854 676.035C870.427 679.494 871.213 683.47 871.213 687.962ZM853.828 689.107C853.828 686.771 853.446 684.66 852.683 682.773C851.964 680.842 850.841 679.202 849.313 677.854C847.831 676.507 845.944 675.474 843.653 674.755C841.362 674.036 838.645 673.677 835.5 673.677H826.808V705.953H836.039C838.914 705.953 841.452 705.571 843.653 704.808C845.854 703.999 847.696 702.854 849.179 701.371C850.706 699.889 851.852 698.114 852.615 696.048C853.424 693.981 853.828 691.668 853.828 689.107ZM930.308 706.155C930.397 703.595 930.263 701.416 929.903 699.619C929.589 697.822 929.05 696.34 928.286 695.172C927.567 694.004 926.669 693.15 925.591 692.611C924.513 692.072 923.277 691.803 921.885 691.803C919.459 691.803 916.943 692.813 914.338 694.835C911.777 696.812 908.947 700.091 905.848 704.673V748H889.002V679.539H903.894L904.5 689.512C905.623 687.76 906.881 686.188 908.273 684.795C909.711 683.402 911.283 682.212 912.99 681.224C914.742 680.19 916.674 679.404 918.785 678.865C920.896 678.326 923.21 678.057 925.726 678.057C929.185 678.057 932.239 678.663 934.89 679.876C937.585 681.044 939.831 682.796 941.628 685.132C943.47 687.468 944.817 690.41 945.671 693.959C946.569 697.463 946.951 701.528 946.816 706.155H930.308ZM1023.77 713.23C1023.77 718.621 1023 723.562 1021.48 728.055C1019.95 732.502 1017.75 736.32 1014.87 739.51C1012 742.699 1008.47 745.17 1004.29 746.922C1000.12 748.674 995.354 749.55 990.009 749.55C984.933 749.55 980.396 748.809 976.397 747.326C972.399 745.844 969.008 743.643 966.223 740.723C963.438 737.758 961.304 734.074 959.821 729.672C958.339 725.225 957.598 720.059 957.598 714.174C957.598 708.738 958.361 703.797 959.889 699.35C961.461 694.902 963.685 691.106 966.56 687.962C969.479 684.817 973.028 682.392 977.206 680.685C981.384 678.933 986.101 678.057 991.356 678.057C996.478 678.057 1001.04 678.82 1005.04 680.348C1009.03 681.83 1012.42 684.054 1015.21 687.019C1018 689.983 1020.11 693.667 1021.54 698.069C1023.03 702.427 1023.77 707.48 1023.77 713.23ZM1006.65 713.635C1006.65 706.537 1005.3 701.214 1002.61 697.665C999.959 694.071 996.028 692.274 990.817 692.274C987.942 692.274 985.494 692.836 983.473 693.959C981.451 695.082 979.789 696.632 978.486 698.608C977.184 700.54 976.218 702.809 975.589 705.414C975.005 708.02 974.713 710.805 974.713 713.77C974.713 720.912 976.15 726.303 979.025 729.941C981.9 733.535 985.831 735.332 990.817 735.332C993.558 735.332 995.938 734.793 997.96 733.715C999.981 732.592 1001.62 731.064 1002.88 729.133C1004.14 727.156 1005.08 724.843 1005.71 722.192C1006.34 719.542 1006.65 716.689 1006.65 713.635ZM1088.12 746.046C1088.12 751.167 1087.35 755.614 1085.83 759.388C1084.34 763.206 1082.19 766.351 1079.36 768.821C1076.57 771.337 1073.2 773.201 1069.25 774.414C1065.34 775.672 1060.96 776.301 1056.11 776.301C1052.16 776.301 1048.47 775.964 1045.06 775.29C1041.65 774.616 1038.84 773.808 1036.64 772.864V757.771C1037.9 758.444 1039.31 759.096 1040.88 759.725C1042.5 760.398 1044.16 760.982 1045.87 761.477C1047.62 762.016 1049.4 762.42 1051.19 762.689C1052.99 763.004 1054.76 763.161 1056.52 763.161C1061.5 763.161 1065.23 761.724 1067.7 758.849C1070.17 755.974 1071.41 751.751 1071.41 746.181V692.342H1038.86V679.539H1088.12V746.046ZM1089.47 660.807C1089.47 662.289 1089.2 663.682 1088.66 664.984C1088.12 666.287 1087.35 667.433 1086.37 668.421C1085.42 669.364 1084.28 670.128 1082.93 670.712C1081.63 671.251 1080.21 671.521 1078.68 671.521C1077.16 671.521 1075.74 671.251 1074.44 670.712C1073.14 670.128 1071.99 669.364 1071 668.421C1070.06 667.433 1069.32 666.287 1068.78 664.984C1068.24 663.682 1067.97 662.289 1067.97 660.807C1067.97 659.324 1068.24 657.932 1068.78 656.629C1069.32 655.326 1070.06 654.181 1071 653.192C1071.99 652.204 1073.14 651.44 1074.44 650.901C1075.74 650.317 1077.16 650.025 1078.68 650.025C1080.21 650.025 1081.63 650.317 1082.93 650.901C1084.28 651.44 1085.42 652.204 1086.37 653.192C1087.35 654.181 1088.12 655.326 1088.66 656.629C1089.2 657.932 1089.47 659.324 1089.47 660.807ZM1173.49 708.514C1173.49 709.637 1173.45 711.097 1173.36 712.894C1173.31 714.69 1173.22 716.375 1173.09 717.947H1128.08C1128.08 720.957 1128.53 723.607 1129.42 725.898C1130.37 728.189 1131.67 730.121 1133.33 731.693C1135.04 733.221 1137.06 734.389 1139.4 735.197C1141.78 736.006 1144.41 736.41 1147.28 736.41C1150.6 736.41 1154.15 736.163 1157.93 735.669C1161.75 735.13 1165.7 734.276 1169.79 733.108V746.181C1168.03 746.675 1166.12 747.124 1164.06 747.528C1161.99 747.933 1159.88 748.292 1157.72 748.606C1155.57 748.921 1153.39 749.146 1151.19 749.28C1148.99 749.46 1146.85 749.55 1144.79 749.55C1139.58 749.55 1134.9 748.809 1130.77 747.326C1126.64 745.844 1123.13 743.665 1120.26 740.79C1117.38 737.87 1115.18 734.276 1113.66 730.009C1112.13 725.741 1111.37 720.8 1111.37 715.185C1111.37 709.614 1112.13 704.561 1113.66 700.023C1115.18 695.441 1117.34 691.533 1120.12 688.299C1122.91 685.02 1126.28 682.504 1130.23 680.752C1134.23 678.955 1138.68 678.057 1143.57 678.057C1148.43 678.057 1152.72 678.82 1156.44 680.348C1160.17 681.83 1163.29 683.919 1165.81 686.614C1168.33 689.31 1170.24 692.521 1171.54 696.25C1172.84 699.979 1173.49 704.066 1173.49 708.514ZM1156.78 706.155C1156.83 703.46 1156.49 701.124 1155.77 699.147C1155.05 697.126 1154.06 695.464 1152.81 694.161C1151.59 692.858 1150.16 691.893 1148.49 691.264C1146.88 690.635 1145.12 690.32 1143.24 690.32C1139.1 690.32 1135.71 691.713 1133.06 694.498C1130.41 697.238 1128.84 701.124 1128.35 706.155H1156.78ZM1245.12 745.372C1241.89 746.675 1238.54 747.641 1235.08 748.27C1231.62 748.898 1228 749.213 1224.23 749.213C1218.8 749.213 1213.92 748.472 1209.61 746.989C1205.3 745.507 1201.64 743.306 1198.63 740.386C1195.62 737.466 1193.3 733.85 1191.69 729.537C1190.11 725.225 1189.33 720.238 1189.33 714.578C1189.33 709.098 1190.18 704.134 1191.89 699.687C1193.64 695.239 1196.09 691.443 1199.23 688.299C1202.38 685.154 1206.15 682.729 1210.55 681.021C1215 679.314 1219.94 678.461 1225.38 678.461C1229.82 678.461 1233.55 678.708 1236.56 679.202C1239.62 679.651 1242.36 680.235 1244.78 680.954V696.924C1242 695.531 1238.97 694.453 1235.69 693.689C1232.45 692.926 1229.38 692.544 1226.46 692.544C1223.4 692.544 1220.66 693.061 1218.23 694.094C1215.81 695.127 1213.76 696.564 1212.1 698.406C1210.44 700.248 1209.16 702.494 1208.26 705.145C1207.41 707.75 1206.98 710.625 1206.98 713.77C1206.98 717.049 1207.45 719.991 1208.4 722.597C1209.34 725.202 1210.67 727.426 1212.37 729.268C1214.12 731.064 1216.21 732.457 1218.64 733.445C1221.06 734.389 1223.76 734.86 1226.72 734.86C1228.16 734.86 1229.67 734.771 1231.24 734.591C1232.86 734.366 1234.45 734.074 1236.02 733.715C1237.64 733.311 1239.21 732.861 1240.74 732.367C1242.31 731.873 1243.77 731.334 1245.12 730.75V745.372ZM1322.07 747.326C1319.11 748 1316.12 748.539 1313.11 748.943C1310.1 749.348 1307.25 749.55 1304.55 749.55C1300.06 749.55 1296.17 749.078 1292.89 748.135C1289.66 747.191 1286.96 745.754 1284.81 743.822C1282.7 741.891 1281.12 739.442 1280.09 736.478C1279.1 733.468 1278.61 729.896 1278.61 725.764V692.342H1260.21V679.539H1278.61V662.02L1295.46 657.64V679.539H1322.07V692.342H1295.46V724.551C1295.46 728.459 1296.35 731.424 1298.15 733.445C1299.95 735.422 1302.96 736.41 1307.18 736.41C1309.88 736.41 1312.5 736.186 1315.06 735.736C1317.62 735.287 1319.96 734.771 1322.07 734.187V747.326Z" fill="white"/>
<defs>
<linearGradient id="paint0_linear_1_69" x1="1024" y1="0" x2="1024" y2="1264" gradientUnits="userSpaceOnUse">
<stop stop-color="#46A482"/>
<stop offset="0.4375" stop-color="#0F7E6B"/>
<stop offset="1" stop-color="#172A30"/>
</linearGradient>
</defs>
</svg>
