 <svg xmlns="http://www.w3.org/2000/svg" style="color: #121212;" viewBox="0 0 24 24" fill="currentColor" class="w-6 h-6">
                <path fill-rule="evenodd" d="M -0.3 6.8 h 16.5 C 16.7 6.8 17 7.1 17 7.5 C 17 7.9 16.7 8.3 16.3 8.3 H -0.3 C -0.7 8.3 -1 7.9 -1 7.5 C -1 7.1 -0.7 6.8 -0.3 6.8 z m 0 6 h 16.5 C 16.7 12.8 17 13.1 17 13.5 C 17 13.9 16.7 14.3 16.3 14.3 H -0.3 C -0.7 14.3 -1 13.9 -1 13.5 C -1 13.1 -0.7 12.8 -0.3 12.8 z m 0 6 h 16.5 C 16.7 18.8 17 19.1 17 19.5 C 17 19.9 16.7 20.3 16.3 20.3 H -0.3 C -0.7 20.3 -1 19.9 -1 19.5 C -1 19.1 -0.7 18.8 -0.3 18.8 z"/>
            </svg>