<svg xmlns="http://www.w3.org/2000/svg" width="893" height="737" viewBox="0 0 893 737" fill="none"><path fill="#DEDEDE" d="M47.84 260.27c-4.5-2.91 15.53-3.52 15.53-3.52l1.73 8.12s-15.93-3.75-17.26-4.6z"></path><path fill="#FDFDFD" d="m131.06 280.77-11.71-91.15s108.75 3.26 131.65 3.54l7.87 88.91s-52.76.35-127.81-1.3z"></path><path fill="#646464" d="m217.62 268.69 27 135.8s-71.12-1.78-119.37-8.39C70.53 388.61 70 381.87 70 381.87L47.17 259.51c.24 1.3 11.85 4.56 66.57 6.88 54.52 2.33 103.88 2.3 103.88 2.3z"></path><path fill="#000" d="m166 400.34-6.57-36.28 35.01 1.36 3.86 36.89-32.3-1.97z" opacity="0.05"></path><path fill="#1E1E1E" d="m168.17 355.4 15.31 76.09a1334.352 1334.352 0 0 0 136.82 6.68l-13.73-76.63c.67.04-84.57-.71-138.4-6.14z"></path><path fill="#FDFDFD" d="M87.25 52s-28.55-4.88-53-11.73l19.28 92.92s-31.41 2.08-29.83 8.42c1.58 6.34 83.39 11.21 83.39 11.21L87.25 52z"></path><path fill="url(#wfh_a)" d="M39.47 65.24s32.34 7.06 42.23 7.89l12.56 67s-61.69-2.31-66.49-13.49c-4.8-11.18-7.54-61.41-7.54-61.41l19.24.01z"></path><path fill="#646464" d="M53.56 133.17 34.28 40.25 26.9 4.68S-2.72 9.55.2 23.57l23.53 118c-1.58-6.32 29.83-8.4 29.83-8.4z"></path><path fill="#FDFDFD" d="m149.2 94.08 11.68 76.55s53.24 2.61 126.7 4.43l-6.08-74s-49.84-1.06-132.3-6.98zm177.73 110.28-4.54-81.54h135.7l1.72 81.54H326.93z"></path><path fill="url(#wfh_b)" d="m336.21 196.2-4.33-66h117L451 197s-82.07-.28-114.79-.8z"></path><mask id="wfh_c" width="120" height="67" x="331" y="130" maskUnits="userSpaceOnUse" style="mask-type:luminance"><path fill="#fff" d="m336.21 196.2-4.33-66h117L451 197s-82.07-.28-114.79-.8z"></path></mask><g mask="url(#wfh_c)"><path fill="url(#wfh_d)" d="M379.15 184.03 356.42 200l35.37 8.53 31.93-11.46-19.29-13.21-25.28.17z"></path><path fill="#FF8538" d="M380.54 170.93H403v12a11.26 11.26 0 1 1-22.52 0v-12h.06zm-5.92-7.58c.1-4.19 2.32-3.94 3.82-1.39l.06.11c.06 3.48.48 10.8-.58 10.82 0 0-2.43-.65-3.18-7.24a18.037 18.037 0 0 1-.12-2.3z"></path><path fill="#FF8538" d="M386.43 171.66c1.66 0 1.76-1.83 1.76-1.83l5.5.09c4.25.07 3.77-2.79 3.75-6.18 0-2.68-.1-7.2-.13-9a8.092 8.092 0 0 1-11-3.57c-.55 1.95-5.89 3.46-7.88 3.9-.41.093-.829.14-1.25.14.24 4.84.49 10.57.54 14.14h7.13s-.08 2.28 1.58 2.31z"></path><path fill="#FFC402" d="M410.57 151.44a6.74 6.74 0 0 0-4.74-6.54 8.51 8.51 0 0 0-2.18-7.849 8.513 8.513 0 0 0-5.99-2.591 8.41 8.41 0 0 0-4.42 1.16 8.052 8.052 0 0 0-12.52.67 4.999 4.999 0 0 0-4.84 5 6.094 6.094 0 0 0-4.58 9.41 4.841 4.841 0 0 0-.47 2 4.862 4.862 0 0 0 4.1 4.979 4.86 4.86 0 0 0 2.32-.199s-.12-2.24-.11-2.24c.43 0 4.61 0 5-.14a5.542 5.542 0 0 0 4.12-3.9 8.1 8.1 0 0 0 4.749 4.098 8.096 8.096 0 0 0 6.251-.528c0 1.75.12 6.27.13 9 0 3.39.5 6.25-3.75 6.18l-5.5-.09s-.1 1.85-1.76 1.83c-1.66-.02-1.62-2.21-1.62-2.21h-8.19v1.79c-.02 4.64 1.78 12.73 10.43 12.73 14 0 15.67-11.17 15.67-11.17-1.56 0 .66-7.34.72-10.82l-3.19-.19s3.16.16 3.19.19c2.2-2.54 1.59-1.74 2.58 1.31a4.001 4.001 0 0 0 1.91-6.64 6.738 6.738 0 0 0 2.69-5.24z"></path><path fill="#FF8538" d="M406 163.35c-.1-4.19-2.32-3.94-3.81-1.39l-.06.11c-.06 3.48-.48 10.8.57 10.82 0 0 2.44-.65 3.18-7.24.094-.763.134-1.531.12-2.3z"></path><path fill="#FFC402" d="M376.63 155.25h1.27v14.78h-1.27v-14.78z"></path><path fill="#000" d="M393.4 155.73a8.106 8.106 0 0 1-4.199-1.253 8.107 8.107 0 0 1-2.931-3.257 5.542 5.542 0 0 1-4.12 3.9c-.3.07-3.65.11-5.5.13v.87h4.49c4.5 0 5.26-2.66 5.26-2.66 3.55 4.5 9.2 3.22 10.95 2.69v-1.33a8.07 8.07 0 0 1-3.95.91z" opacity="0.15"></path><path fill="url(#wfh_e)" d="M381.821 159.229h-.01a3.96 3.96 0 0 0-3.91 4.009v.01a3.959 3.959 0 0 0 4.009 3.91h.01a3.959 3.959 0 0 0 3.91-4.009v-.01a3.96 3.96 0 0 0-4.009-3.91z" opacity="0.5"></path><path fill="url(#wfh_f)" d="M392.548 159.094h-.01a3.961 3.961 0 0 0-3.91 4.01v.01a3.962 3.962 0 0 0 4.01 3.91l.01-.001a3.96 3.96 0 0 0 3.91-4.009v-.01a3.961 3.961 0 0 0-4.01-3.91z" opacity="0.5"></path><path stroke="#1E1E1E" stroke-linecap="round" stroke-miterlimit="10" stroke-width="1.18" d="M381.821 159.229h-.01a3.96 3.96 0 0 0-3.91 4.009v.01a3.959 3.959 0 0 0 4.009 3.91h.01a3.959 3.959 0 0 0 3.91-4.009v-.01a3.96 3.96 0 0 0-4.009-3.91zm10.727-.135h-.01a3.961 3.961 0 0 0-3.91 4.01v.01a3.962 3.962 0 0 0 4.01 3.91l.01-.001a3.96 3.96 0 0 0 3.91-4.009v-.01a3.961 3.961 0 0 0-4.01-3.91zm-6.718 4.046 2.8-.04m7.93-.1 4.75-1.56"></path><path stroke="#FF8538" stroke-linecap="round" stroke-linejoin="round" stroke-width="3.75" d="M384.4 173.82a7.226 7.226 0 0 0 4.6.18"></path><path stroke="#FF2B50" stroke-linecap="round" stroke-miterlimit="10" stroke-width="3.75" d="M379.15 183c0 3.352 1.332 6.567 3.702 8.938a12.644 12.644 0 0 0 17.876 0A12.644 12.644 0 0 0 404.43 183"></path></g><path fill="#000" d="M427.2 122.82v21.97h31.35l-.46-21.97H427.2zm-70.32 64.66.08 16.88h46.68l-.18-17.23-46.58.35z" opacity="0.1"></path><path fill="#FDFDFD" d="M314.46 238.93h94.85l1.48 60.23-92.64.15-3.69-60.38zm31.39-50 .94 25.62h49.43l-.93-25.62h-49.44zm93.8 29.99h88.93v28.23h-88.93v-28.23zm143.38-30.33-61.45.31v-27.98l61.45-.31v27.98zm-96.93 155s43.83.1 112.1 1.58l1.28-74.36H486.1v72.78zM635.6 160l1.86-64.08s60.67-1.38 98.67-4l-5.93 66.57s-28.48.91-94.6 1.51zm-23.75 33s61.73.53 109.45 0l-2.79 61.73s-79.1-.22-107.59-.69l.93-61.04zm49.43 82.43s58.15.18 93.36 1.23l-4.58 54s-48.6-2.24-90.78-2.83l2-52.4zm96.43-40.62c-.87 0 4.1-58.26 4.1-58.26s55.78-.17 88.67-.17l-8 61.36s-26.8-2.93-84.77-2.93zm93.94-112.69 9.06-93.67c-43.93 6-89.33 7.92-89.33 7.92l-6.25 106.72c39.64-.84 103.9-5 104.88-11.4.98-6.4-18.36-9.57-18.36-9.57z"></path><path fill="#646464" d="m862.39 11-1.53 15.8-9.21 95.32s19.35 3.12 18.35 9.57l12.9-111.54c.71-6.84-20.51-9.15-20.51-9.15z"></path><path fill="#FDFDFD" d="M416.67 138.24 414.8 61.8h134.76v76.44H416.67z"></path><path fill="url(#wfh_g)" d="m427.16 95.76-.56-22.89h28.83l.41 22.89h-28.68z"></path><path fill="url(#wfh_h)" d="m458.75 95.76-.2-9.99h10.1l.14 9.99h-10.04z"></path><path fill="url(#wfh_i)" d="m643.8 111.12.28-9.23 9.98-.24-.2 9.16-10.06.31z"></path><path fill="url(#wfh_j)" d="m655.71 110.73.28-9.23 10.07-.24-.29 9.16-10.06.31z"></path><path fill="#FDFDFD" d="m666.58 47.33-82.36 1.42V2.9L666.58 0v47.33z"></path><path fill="#000" d="m222.69 98.64 1.79 13.65 58.54 2.56-1.52-13.81-58.81-2.4z" opacity="0.1"></path><path fill="#FDFDFD" d="m199.67 3.94 13.74 100.63s97.46 4.32 140.83 4.32L348.35 15s-70.5-3.2-148.68-11.06z"></path><path fill="url(#wfh_k)" d="m590.88 16.54-.05-7.39 8.2-.27-.03 7.41-8.12.25z"></path><path fill="#FF2B50" d="m892.59 280.44-.07.25a.777.777 0 0 0 .07-.25zM828 368.47l.06.27.05-.26-.11-.01z"></path><path fill="#FDFDFD" d="m787.86 273.06-10.63 89.14s26.51 2.5 50.76 6.27h.11l16.4-80.37s46-2.29 48-7.42l.07-.25c.61-5.3-104.71-7.37-104.71-7.37z"></path><path fill="url(#wfh_l)" d="m797.7 283.61-8.34 69.95s26.41 2.71 45.44 5.67l-2.84-.36L845.27 297s33-3.34 34.58-7.37v-.19c.4-3.84-82.15-5.83-82.15-5.83z"></path><path fill="#646464" d="m844.5 288.11-16.4 80.37-.05.26-5.12 25.06s40.55-3.76 44.19-13.27l25.4-99.84c-2.02 5.13-48.02 7.42-48.02 7.42z"></path><path fill="url(#wfh_m)" d="M429.26 507.15h-89.03l3.38-.58h87.19l-1.54.58z"></path><path fill="#7F7F7F" d="m430.8 506.57 15.7 59.5-1.01.78-16.23-59.7 1.54-.58z"></path><path stroke="#CECECE" stroke-linecap="round" stroke-miterlimit="10" stroke-width="0.93" d="m533.82 72.87 3.25 3.25m-3.25 0 3.25-3.25m-7.5 3.12a1.5 1.5 0 1 0 0-3 1.5 1.5 0 0 0 0 3zm43.58 89.92 3.25 3.25m-3.25 0 3.25-3.25m-7.5 3.13a1.5 1.5 0 1 0-.001-3.001 1.5 1.5 0 0 0 .001 3.001zM332.82 26.05l3.2 3.3m-3.25-.05 3.3-3.2m-7.52 3.01a1.5 1.5 0 1 0 0-3 1.5 1.5 0 0 0 0 3zm57.83 164.61 3.25 3.25m-3.25 0 3.25-3.25m-7.5 3.13a1.5 1.5 0 1 0-.001-3.001 1.5 1.5 0 0 0 .001 3.001zm138.76 25.37 3.25 3.25m-3.25 0 3.25-3.25m-7.5 3.12a1.5 1.5 0 1 0-.001-3.001 1.5 1.5 0 0 0 .001 3.001zm191.57-25.23 3.25 3.25m-3.25 0 3.25-3.25m-7.5 3.13a1.5 1.5 0 1 0-.001-3.001 1.5 1.5 0 0 0 .001 3.001zm39.16 80.5 3.14 3.36m-3.24-.11 3.35-3.14m-7.55 2.88a1.5 1.5 0 1 0-.001-3.001 1.5 1.5 0 0 0 .001 3.001zm-16.38-186.66 3.39 3.1m-3.25.14 3.11-3.38m-7.42 3.44a1.5 1.5 0 1 0-.001-3.001 1.5 1.5 0 0 0 .001 3.001zm121.31 81.71 3.17 3.33m-3.25-.08 3.33-3.17m-7.54 2.94a1.5 1.5 0 1 0-.001-3.001 1.5 1.5 0 0 0 .001 3.001zM655.46 7.02l3.39 3.11m-3.25.14 3.11-3.39m-7.43 3.45a1.5 1.5 0 1 0 0-3 1.5 1.5 0 0 0 0 3zM401.97 242.99l3.25 3.25m-3.25 0 3.25-3.25m-7.5 3.13a1.5 1.5 0 1 0-.001-3.001 1.5 1.5 0 0 0 .001 3.001zm-158.84-39.91 3.25 3.25m-3.25 0 3.25-3.25m-7.5 3.13a1.5 1.5 0 1 0-.001-3.001 1.5 1.5 0 0 0 .001 3.001zM76.19 58.65l3.82 3.72m-3.25-.4 2.68-2.92m-6.009 1.998c.515-.492.395-1.454-.269-2.149-.664-.695-1.62-.859-2.135-.367-.515.492-.394 1.455.27 2.15.663.694 1.62.859 2.134.366zM585.86 280.58l3.25 3.25m-3.25 0 3.25-3.25m-7.5 3.12a1.5 1.5 0 1 0-.001-3.001 1.5 1.5 0 0 0 .001 3.001z"></path><path fill="#BCBCBC" d="M527.66 166.04h10.04v6.67h-10.04v-6.67z"></path><path fill="url(#wfh_n)" d="M620.82 199.9h10.04v3.34h-10.04v-3.34z"></path><path fill="url(#wfh_o)" d="M527.66 178.37h2.78v6.6h-2.78v-6.6z"></path><path fill="url(#wfh_p)" d="M534.19 181.67h2.78v3.3h-2.78v-3.3z"></path><path fill="url(#wfh_q)" d="M547.25 180.65h2.78v4.32h-2.78v-4.32z"></path><path fill="url(#wfh_r)" d="M553.78 178.37h2.78v6.6h-2.78v-6.6z"></path><path fill="url(#wfh_s)" d="M560.32 175.45h2.78v9.52h-2.78v-9.52z"></path><path fill="url(#wfh_t)" d="M566.85 172.71h2.78v12.26h-2.78v-12.26zm6.53 0h2.78v12.26h-2.78v-12.26z"></path><path fill="url(#wfh_u)" d="M540.72 182.93h2.78v2.03h-2.78v-2.03z"></path><path fill="#000" d="M429.97 187.16a7.69 7.69 0 1 0 0-15.38 7.69 7.69 0 0 0 0 15.38z" opacity="0.3"></path><path fill="#F5F5F5" d="M428.71 178.8a.743.743 0 0 0 .52-.9l-.21-.8a.94.94 0 0 0-1.11-.68.94.94 0 0 0-.75.87v.18a4.349 4.349 0 0 0 1.34 3.38l.52.5a4.37 4.37 0 0 0 3.46 1.16 1 1 0 0 0 .78-.82.996.996 0 0 0-.71-1.06l-.78-.2a.737.737 0 0 0-.562.075.728.728 0 0 0-.338.455l-.28-.1a2.992 2.992 0 0 1-1.87-2.06h-.01z"></path><path stroke="#CECECE" stroke-linecap="round" stroke-miterlimit="10" stroke-width="0.93" d="M351.22 193.85h9.42m-9.42 3.12h20.42m-20.42 3.13h8.76m-8.76 8.33h10.17"></path><path fill="url(#wfh_v)" d="m240.47 17.76-27.37-2.15 3.38 23.52 27.37 1.85-3.38-23.22z"></path><mask id="wfh_w" width="31" height="26" x="213" y="15" maskUnits="userSpaceOnUse" style="mask-type:luminance"><path fill="#fff" d="m240.47 17.76-27.37-2.15 3.38 23.52 27.37 1.85-3.38-23.22z"></path></mask><g mask="url(#wfh_w)"><path fill="url(#wfh_x)" d="m241.75 48.76-19.84-1.37-1.27-8a6.47 6.47 0 0 1 7.16-7.81l2.86.2a11.196 11.196 0 0 1 9.82 9l1.27 7.98z"></path><path fill="url(#wfh_y)" d="M234.304 32.929c2.284-2.507 1.585-6.864-1.562-9.732-3.147-2.869-7.55-3.162-9.834-.656-2.285 2.506-1.585 6.863 1.562 9.732 3.147 2.868 7.55 3.162 9.834.656z"></path></g><path stroke="#CECECE" stroke-linecap="round" stroke-miterlimit="10" stroke-width="0.93" d="m219.33 54.8 56.3 2.98m-55.13 4.04 50.69 2.6m-49.52 4.43 45.07 2.2m-43.89 4.82 39.45 1.81m-38.28 5.21 33.83 1.43"></path><path fill="url(#wfh_z)" d="m288.91 57.78 2.47 28.81s33.15 1.07 48 1.53l-1.72-28.33-48.75-2.01z"></path><path fill="url(#wfh_A)" d="M511.8 278.82h-17.08v14.85l17.08-.03v-14.82z"></path><mask id="wfh_B" width="18" height="16" x="494" y="278" maskUnits="userSpaceOnUse" style="mask-type:luminance"><path fill="#fff" d="M511.8 278.82h-17.08v14.85l17.08-.03v-14.82z"></path></mask><g mask="url(#wfh_B)"><path fill="url(#wfh_C)" d="M509.69 298.69h-12.37v-5.07a5.282 5.282 0 0 1 1.553-3.744 5.29 5.29 0 0 1 3.747-1.546h1.78a5.29 5.29 0 0 1 5.29 5.29v5.07z"></path><path fill="url(#wfh_D)" d="M503.51 290.21a4.34 4.34 0 1 0 0-8.68 4.34 4.34 0 0 0 0 8.68z"></path></g><path fill="url(#wfh_E)" d="M531.91 278.82h-17.08v14.85l17.08-.03v-14.82z"></path><mask id="wfh_F" width="18" height="16" x="514" y="278" maskUnits="userSpaceOnUse" style="mask-type:luminance"><path fill="#fff" d="M531.91 278.82h-17.08v14.85l17.08-.03v-14.82z"></path></mask><g mask="url(#wfh_F)"><path fill="url(#wfh_G)" d="M529.8 298.69h-12.37v-5.07a5.282 5.282 0 0 1 1.553-3.744 5.296 5.296 0 0 1 3.747-1.546h1.78a5.29 5.29 0 0 1 5.29 5.29v5.07z"></path><path fill="url(#wfh_H)" d="M523.62 290.21a4.34 4.34 0 1 0 0-8.68 4.34 4.34 0 0 0 0 8.68z"></path></g><path stroke="#CECECE" stroke-linecap="round" stroke-miterlimit="10" stroke-width="0.95" d="M494.65 307.48h22.71m-22.71 5.03h22.71m-22.71 5.04h10m-10 5.03h21.68m12.62-15.1h22.71m-22.71 5.03h10.84m-10.84 5.04h15.43m-15.43 5.03h21.68m12.61-15.1h15.45m-15.45 5.03h22.72m-22.72 5.04h14.9m-14.9 5.03h8.74M494.72 333s43.48.13 95.9 1.1"></path><path stroke="#CECECE" stroke-linecap="round" stroke-miterlimit="10" stroke-width="0.93" d="M427.5 105.74h73.45m-73.45 5.03h35.05m-35.05 5.04h49.91m-49.91 5.03h70.11m-43.28 119.43a6.55 6.55 0 1 0-.001-13.101 6.55 6.55 0 0 0 .001 13.101zm-123.7 50.26a4.12 4.12 0 1 0-.001-8.241 4.12 4.12 0 0 0 .001 8.241zm11.1 0a4.12 4.12 0 1 0-.001-8.241 4.12 4.12 0 0 0 .001 8.241zm129.13-50.26a6.55 6.55 0 1 0-.001-13.101 6.55 6.55 0 0 0 .001 13.101zm16.68 0a6.55 6.55 0 1 0-.001-13.101 6.55 6.55 0 0 0 .001 13.101z"></path><path stroke="#CECECE" stroke-linecap="round" stroke-miterlimit="10" stroke-width="0.97" d="M500.44 231.2h23.93m-23.93 5.04h23.93"></path><path fill="url(#wfh_I)" d="m642.13 153.32 1.47-39.23s33.47-.88 52.39-1.3l-2.66 39.7-51.2.83z"></path><path stroke="#CECECE" stroke-linecap="round" stroke-miterlimit="10" stroke-width="0.86" d="m646.9 117.86 14.12-.34m-14.22 3.89 37.77-.9m-37.86 4.45 31.74-.76m-31.83 4.31 16.05-.39m-16.15 3.93 7.8-.18m-7.89 3.73 11.07-.26m-11.17 3.81 39.27-.93m-39.36 4.48 18.93-.45m-19.02 4 31.74-.75m-31.84 4.3 22.89-.54m-7.92-14.09 11.07-.26"></path><path fill="url(#wfh_J)" d="m620.72 208.33 90.65.1-1.56 38.04-89.89-.35.8-37.79z"></path><path fill="#E9E9E9" d="M665.17 234.97a7.57 7.57 0 1 0 0-15.14 7.57 7.57 0 1 0 0 15.14z"></path><path fill="url(#wfh_K)" d="M662.88 225.47v3.86a.514.514 0 0 0 .231.432.514.514 0 0 0 .489.038l4.6-1.93a.519.519 0 0 0 0-1l-4.6-1.87a.512.512 0 0 0-.484.045.517.517 0 0 0-.236.425z"></path><path stroke="#CECECE" stroke-linecap="round" stroke-miterlimit="10" stroke-width="0.93" d="M620.82 205.5h30.44"></path><path fill="url(#wfh_L)" d="m667.58 300.63.13-18.77 23.62.33-.26 18.77-23.49-.33z"></path><path fill="url(#wfh_M)" d="m693.46 300.99.09-18.85 6.14.12-.14 18.85-6.09-.12z"></path><path fill="url(#wfh_N)" d="m701.72 300.99.1-18.57 6.13.12-.14 18.57-6.09-.12z"></path><path stroke="#CECECE" stroke-linecap="round" stroke-miterlimit="10" stroke-width="0.76" d="m667.59 308.81 60.18.85m-60.31 3.28 28.73.4m-28.86 3.72 40.89.58m-41.02 3.55 57.45 1.21"></path><path fill="url(#wfh_O)" d="m163.9 106.74 3 18.41 35 1.5-2.82-17.76-35.18-2.15z"></path><path fill="url(#wfh_P)" d="m171.11 150.46 1.69 11.63 68.6 2.5-1.64-10.99-68.65-3.14z"></path><path stroke="#CECECE" stroke-linecap="round" stroke-miterlimit="10" stroke-width="0.93" d="m168.23 132.37 35.26 1.45m-34.77 1.24 43.08 1.92m-42.59.77 50.9 2.38m-50.41.31 58.72 2.85m-58.23-.16 66.54 3.32m87.95 113.06h57.83m-57.56 3.73 52.35.04m-52.08 3.68 46.87.09m-46.61 3.64 41.39.13m-41.12 3.6 35.91.17m-224.8-25.26 111.65 1.83m-111.16 1.51 111.62 1.64m-111.13 1.7 111.6 1.46m-111.11 1.88 111.57 1.27m-111.08 2.07 111.54 1.09"></path><path fill="#FDFDFD" d="M376.49 303.88h48.97v27.52h-48.97v-27.52z"></path><path stroke="#CECECE" stroke-linecap="round" stroke-miterlimit="10" stroke-width="0.93" d="M256.182 163.077c1.506-1.721.924-4.693-1.3-6.638-2.224-1.946-5.247-2.128-6.753-.407-1.505 1.721-.923 4.693 1.301 6.639 2.224 1.945 5.247 2.127 6.752.406z"></path><path fill="url(#wfh_Q)" d="M141.833 213.006c2.203-1.985 1.909-5.903-.658-8.75-2.566-2.847-6.432-3.545-8.635-1.56-2.203 1.986-1.908 5.904.658 8.751 2.566 2.847 6.432 3.545 8.635 1.559z"></path><path fill="url(#wfh_R)" d="M158.136 213.601c2.203-1.986 1.908-5.904-.658-8.751-2.566-2.847-6.432-3.545-8.635-1.559-2.203 1.985-1.909 5.903.657 8.75 2.566 2.847 6.433 3.545 8.636 1.56z"></path><path fill="url(#wfh_S)" d="M174.099 213.956c2.203-1.985 1.909-5.903-.657-8.75-2.567-2.847-6.433-3.545-8.636-1.56-2.203 1.986-1.908 5.904.658 8.751 2.566 2.847 6.432 3.545 8.635 1.559z"></path><path stroke="#CECECE" stroke-linecap="round" stroke-miterlimit="10" stroke-width="0.93" d="M269.404 163.742c1.505-1.721.923-4.693-1.301-6.638-2.224-1.946-5.247-2.128-6.753-.407-1.505 1.721-.923 4.693 1.301 6.638 2.224 1.946 5.247 2.128 6.753.407zM222.69 104.97l-9.28-.4-.81-5.93m133.82 105.72-.57-8.03"></path><path fill="url(#wfh_T)" d="M382.51 254.71h-58.52l-.37-6.24h58.51l.38 6.24z"></path><path fill="url(#wfh_U)" d="m132.93 219.75 3.1 22.06 111.95 1.9-2.85-22.04-112.2-1.92z"></path><path fill="#000" d="M453.91 736.65c95.059 0 172.12-5.507 172.12-12.3 0-6.793-77.061-12.3-172.12-12.3s-172.12 5.507-172.12 12.3c0 6.793 77.061 12.3 172.12 12.3z" opacity="0.15"></path><path fill="url(#wfh_V)" d="M424.81 651.92v45.22l-43.53 15.09a4.866 4.866 0 0 0-3.25 4.19l-1.22 14.63a1.14 1.14 0 0 0 .297.858 1.123 1.123 0 0 0 .833.362h4.67a1.138 1.138 0 0 0 1.13-1l1.33-11.77c.039-.35.185-.68.417-.945.233-.264.541-.451.883-.535l44.63-10.8 55.23 11.58a1.832 1.832 0 0 1 1.38 1.28l3.39 11.38a1.152 1.152 0 0 0 1.09.81h4.2a1.125 1.125 0 0 0 1.106-.908c.034-.17.028-.345-.016-.512L493.57 717a5.433 5.433 0 0 0-3.69-3.77l-54.06-16v-45.31h-11.01z"></path><path fill="url(#wfh_W)" d="m424.81 697.14-51.56 2.26a5.31 5.31 0 0 0-5 4.44l-2.1 12.72a1.12 1.12 0 0 0 1.11 1.31h2.4a1.13 1.13 0 0 0 1.1-.85l2.51-9.82a2.172 2.172 0 0 1 2.2-1.64l22.47.9 26.87-9.32z"></path><path fill="url(#wfh_X)" d="m435.82 697.28 38.88 3.45a4.243 4.243 0 0 1 3.83 3.6l.89 5.85-5.69-1.68-.31-1.33a1.277 1.277 0 0 0-1.22-1l-6.71-.13-29.67-8.76z"></path><path fill="url(#wfh_Y)" d="m474.81 716.41.51 2.57a1.132 1.132 0 0 0 1.11.91H479a1.112 1.112 0 0 0 .854-.382 1.12 1.12 0 0 0 .266-.898l-.15-1.13-5.16-1.07z"></path><path fill="url(#wfh_Z)" d="M383.62 622.69s10.37 31.68 45.22 32.83c34.85 1.15 39.6-11.58 43.78-20.7l-8.49-1.62s-2.6 18.58-34.43 16.85c-31.83-1.73-38.7-28.8-38.7-28.8l-7.38 1.44z"></path><path fill="url(#wfh_aa)" d="M515.93 525.33a189.47 189.47 0 0 0-9.8 28.8c-3.45 14.55.35 39.65 1.2 50.79s-4.23 26-4.23 26l-9.31 4.93h-13.67L454.86 630 397 624.19l2.83-26.88 94.07-63c.74-.47 22.03-8.98 22.03-8.98z"></path><path fill="#000" d="M429.79 626s48.68 13.73 60.59-8.36c8.46-15.69 4-35.41 4-35.41l-50 3.62s-23.97 36.47-14.59 40.15z" opacity="0.3"></path><path fill="#1E1E1E" d="M277.28 517.64s1.89-4.92 5.74-4.29c3.85.63 29.73 17.17 38.86 24 9.13 6.83-35.46 6.51-35.46 6.51l-9.14-9.14a31.91 31.91 0 0 1 0-17.08z"></path><path fill="#BA3DFE" d="M282.3 515.21a3.8 3.8 0 0 0-1.45.66l7.48 3.27c-1.64-2.75-3.9-4.35-6.03-3.93z" opacity="0.3"></path><path fill="#F5F5F5" d="M290.37 524.58a17.099 17.099 0 0 0-2-5.44l-7.48-3.27-7.34-3.2-.29 22.16 12 3.17v-1.65a3.5 3.5 0 0 0 1.25 0c3.28-.68 5.02-5.94 3.86-11.77z"></path><path fill="#000" d="M290.37 524.58a17.099 17.099 0 0 0-2-5.44l-4.4-1.92c1.4 2.42 3.72 8.69.23 20.5l1.08.28v-1.65a3.5 3.5 0 0 0 1.25 0c3.26-.68 5-5.94 3.84-11.77z" opacity="0.3"></path><path fill="#F5F5F5" d="m275.22 553.88-8.83.25-4.69-21.44 5.33.79 8.19 9.53s4.49 9.12 0 10.87z"></path><path fill="#000" d="m275.22 543-8.22-9.52-2.5-.37c2 3.58 6.18 12.22 7 20.87l3.73-.1c4.48-1.75-.01-10.88-.01-10.88z" opacity="0.3"></path><path fill="#FF8538" d="M610.08 432.43a59.476 59.476 0 0 0 3.2-5.15c.86-1.7 1.21-10.17 1.31-13.22a1.47 1.47 0 0 1 1.68-1.397 1.453 1.453 0 0 1 .959.58c.113.155.195.33.241.517l1.27 5.11c.011.056.04.107.082.145a.264.264 0 0 0 .151.07.27.27 0 0 0 .277-.155l6.83-14.45a1.294 1.294 0 0 1 1.68-.63c.291.13.524.364.654.655.129.292.145.622.046.925l-4.15 12.51a.151.151 0 0 0 .065.205.151.151 0 0 0 .205-.065l9-11.28a1.37 1.37 0 0 1 1.94-.22 1.383 1.383 0 0 1 .3 1.82l-7.47 11.83a.152.152 0 0 0 .126.252.152.152 0 0 0 .104-.052l9.87-8.61a1.329 1.329 0 0 1 1.78 0 1.332 1.332 0 0 1 .1 1.83l-8.19 9.7a.16.16 0 0 0 .004.2.159.159 0 0 0 .196.04l8.26-4.59a1.099 1.099 0 0 1 1.626 1.101 1.11 1.11 0 0 1-.376.699l-8.61 7.37c-1.46 1.4-11 10.2-13.75 14.05-2.75 3.85-11.27-6.95-9.41-9.79zm-217.32-39.65s-.05-6 .32-10a16.915 16.915 0 0 0-2-10.09 38.036 38.036 0 0 0-2.82-4.44 1.758 1.758 0 0 0-2.61-.26 1.762 1.762 0 0 0-.45 1.88l1.3 3.62a2.524 2.524 0 0 1-.65 2.71l-.63.58-3.68-4.09 2.95-10.82a1.23 1.23 0 0 0-.61-1.42 1.256 1.256 0 0 0-.961-.091 1.26 1.26 0 0 0-.739.621l-7.61 15a5.426 5.426 0 0 0 0 5l3.69 7.06 2.22 10.28 12.28-5.54z"></path><path fill="#FF8538" d="M392.76 392.78s-.05-6 .32-10a16.915 16.915 0 0 0-2-10.09 38.036 38.036 0 0 0-2.82-4.44 1.758 1.758 0 0 0-2.61-.26 1.762 1.762 0 0 0-.45 1.88l1.3 3.62a2.524 2.524 0 0 1-.65 2.71l-.63.58-3.68-4.09 2.95-10.82a1.23 1.23 0 0 0-.61-1.42 1.256 1.256 0 0 0-.961-.091 1.26 1.26 0 0 0-.739.621l-7.61 15a5.426 5.426 0 0 0 0 5l3.69 7.06 2.22 10.28 12.28-5.54z"></path><path fill="#000" d="M386.35 376.41s2.54 2.94 1.66 4.5c-.88 1.56-3.6 7.19-7.54 4.18-3.94-3.01 5.88-8.68 5.88-8.68z" opacity="0.3"></path><path fill="#1E1E1E" d="m382 371.12 3.62 4.05.49-2.77-.89-2.49a1.755 1.755 0 0 1 .45-1.88c.32-.292.737-.453 1.17-.45l.61-4.05a.78.78 0 0 0-.61-.88l-1.69-.33a.777.777 0 0 0-.9.55l-.58 2.12-1.67 6.13z"></path><path fill="url(#wfh_ab)" d="m386.82 362.65 9.4-50.89-1.02-.34-10.07 50.9 1.69.33z"></path><path fill="#DE1250" d="M379.75 403.87s-1.95-6.59-1.33-8.39a8.803 8.803 0 0 1 7.86-5.59c5-.43 7.3.88 8.24 3.88a40.49 40.49 0 0 1 1.32 6.83l-16.09 3.27zm225.32 31.75a20.158 20.158 0 0 1 4.43-4.62c2.14-1.33 6.26-1 9.82 2 3.56 3 4.59 7 3.26 8.86-1.33 1.86-3.31 5.25-3.31 5.25l-14.2-11.49z"></path><path fill="#1E1E1E" d="M409.4 560.56s-24.76-17.83-38.85-19.65c-7.11-.92-27.35-2.13-48.67-3.53-5.9-.39-11.9-.79-17.71-1.21-5.33-.38-10.5-.77-15.34-1.17-8.6-.71-16.11-1.45-21.44-2.21-2.87-.41-1.64.55-1.64.55s10.12 8.07 9.44 21.61l71.28 13.4s21.61 30.65 41.86 43.25c20.25 12.6 54.87 20.52 75.8-2.33 0 0-2.74-30.17-54.73-48.71z"></path><path fill="url(#wfh_ac)" d="M616.27 435.93c-9.85-7-15.08 2.21-22.6 10.56-7.52 8.35-34 38-34 38s-29.32 15.19-42.18 18.51c-12.86 3.32-20.25.69-29.15-4.24-8.9-4.93-32.33-6-37-5.74 0 0-18.79-16-27.13-25.31-8.34-9.31-10-10.4-11.36-14.92-1.36-4.52-13.41-45.56-15.18-52.26-1.77-6.7-8.76-8.21-13.41-6.57-4.65 1.64-6.57 6.43-5.75 11.22.82 4.79 13.79 55.51 15.84 60.82 2.05 5.31 14.65 22.6 20.94 30 6.29 7.4 8.89 22.43 10.67 33.24 1.78 10.81-16.56 31.33-16.56 31.33 52 18.54 54.73 48.71 54.73 48.71 20.93-22.85 36-53.55 42-72.27 0 0 54.45-20.63 60.88-23.36 6.43-2.73 37.49-39.27 44.33-50.22 6.84-10.95 14.78-20.53 4.93-27.5z"></path><path fill="#000" d="M464.13 609.27a186.668 186.668 0 0 0 19.44-25.64h-34.52c13.95 13.56 15.08 25.64 15.08 25.64z" opacity="0.3"></path><path fill="#DE1250" d="M461.19 490.88s-7.14-2.21-7.28 6.93c-.14 9.14 5.29 13 12.77 14.69 7.48 1.69 18.53-3.7 20.18-10.36 1.65-6.66-.69-8.31-4.09-8.75-3.4-.44-21.58-2.51-21.58-2.51z"></path><path fill="#1E1E1E" d="M329.33 584.75c1.41.71 34.84 31.88 45.14 33.43 10.3 1.55 47.33 5.19 47.33 5.19l-13.34-14.1s-40.62-25.78-41-25.64c-.38.14-38.13 1.12-38.13 1.12z"></path><path fill="#A4A4A4" d="M349.08 614.89v3.66a1.35 1.35 0 0 0 1.17 1.34l111.38 14.93v-8.74l-111-12.53a1.351 1.351 0 0 0-1.429.776c-.08.177-.122.369-.121.564z"></path><path fill="#000" d="m369.69 615.71 4.3 7.36 87.64 11.75-13.23-10.23-78.71-8.88z" opacity="0.3"></path><path fill="#1E1E1E" d="M461.63 626.08s25.37 8.92 34.84 4.37c9.47-4.55 8.58-23.88 5.36-44.29-3.22-20.41 5.19-12.69 6.54 0 1.35 12.69 7.28 38.37-3.72 47.11-11 8.74-25.33 3.93-43 1.55m4.58-174.14s-7.65-5.24-10.33-11.32c-2.68-6.08 5.17-5.36 5.17-5.36s-6.58-7.52-.28-10c6.3-2.48 30.16-2.75 37.68 8.1 8 11.53 3.86 28.52-6.67 32.31-10.53 3.79-25.57-13.73-25.57-13.73z"></path><path fill="#FF8538" d="M459.48 492.26c-2 4.65.85 10.4 5.38 12.74 5.57 2.88 12.62.31 15.75-5.74.3-.57.51-1.17.76-1.74.9-2 3.9-12.76 5.32-15.23 1.73-3 1.36-3.22 1.36-3.22s3.19.49 5.62-3.54 2.34-6.51-.1-7.11c-2.44-.6-5 3.68-5 3.68s-2.09-.2-2.68-1.09c-.59-.89 2.48-6.91 5.22-10.3 0 0-5.47-4.77-2.84-10.24 0 0-12.43-.1-19.19-.6 0 0-4.08 7.21-7.81 15-3.73 7.79-3.58 10.45-1.21 13.92.9 1.31 3.41 4.39 2.41 6.63s-2.09 4.75-2.99 6.84z"></path><path fill="#000" d="M484.87 480.18a.171.171 0 0 0-.055-.235.171.171 0 0 0-.235.055c-2.41 2.58-6 3.7-9.23 0-3.43-4-7-5.42-10.69-5.47-3.49 0-6.56 1.84-3.87 5.35 1.07 1.54 2.44 3.8 1.66 5.56-1 2.24-2.07 4.73-3 6.82a8.473 8.473 0 0 0-.36 5.55c20.41-7.13 24.91-15.15 25.78-17.63z" opacity="0.3"></path><path stroke="#1E1E1E" stroke-miterlimit="10" stroke-width="0.77" d="m470.31 458.4 3.15.17"></path><path fill="url(#wfh_ad)" d="m467.06 461-6.26-.44c-1.09-.07-1.71-.83-1.37-1.69l.95-2.43a2.684 2.684 0 0 1 1.092-1.117A2.683 2.683 0 0 1 463 455l6.26.44c1.09.08 1.71.83 1.37 1.69l-1 2.44a2.68 2.68 0 0 1-2.57 1.43z" opacity="0.5"></path><path fill="url(#wfh_ae)" d="m480.33 461.8-6.26-.44c-1.1-.07-1.71-.83-1.37-1.69l.95-2.43a2.65 2.65 0 0 1 2.59-1.41l6.26.43c1.09.08 1.71.83 1.37 1.69l-1 2.44a2.657 2.657 0 0 1-2.54 1.41z" opacity="0.5"></path><path stroke="#1E1E1E" stroke-linecap="round" stroke-miterlimit="10" stroke-width="0.77" d="m483.53 458.81 4.05 5.15M467.06 461l-6.26-.44c-1.09-.07-1.71-.83-1.37-1.69l.95-2.43a2.684 2.684 0 0 1 1.092-1.117A2.683 2.683 0 0 1 463 455l6.26.44c1.09.08 1.71.83 1.37 1.69l-1 2.44a2.68 2.68 0 0 1-2.57 1.43zm13.27.8-6.26-.44c-1.1-.07-1.71-.83-1.37-1.69l.95-2.43a2.65 2.65 0 0 1 2.59-1.41l6.26.43c1.09.08 1.71.83 1.37 1.69l-1 2.44a2.657 2.657 0 0 1-2.54 1.41z"></path><path stroke="#FF8538" stroke-linecap="round" stroke-miterlimit="10" stroke-width="0.64" d="m489.17 466.14 1.46 1.99"></path><path fill="#FF8538" d="m377.88 372.44 1.69-.85a2.875 2.875 0 0 1 3.42.66l2.88 3.22a1.918 1.918 0 0 1 .07 2.47l-.49.61a.585.585 0 0 1-.455.214.594.594 0 0 1-.455-.214l-.41-.46"></path><path stroke="#1E1E1E" stroke-linecap="round" stroke-miterlimit="10" d="m377.88 372.44 1.69-.85a2.875 2.875 0 0 1 3.42.66l2.88 3.22a1.918 1.918 0 0 1 .07 2.47l-.49.61a.585.585 0 0 1-.455.214.594.594 0 0 1-.455-.214l-.41-.46"></path><path fill="#FF8538" d="m377.63 374.43 1-.2a3 3 0 0 1 2.71.89l3 3.24a2.203 2.203 0 0 1 .23 2.7l-1 1.36-.27-.3"></path><path stroke="#1E1E1E" stroke-linecap="round" stroke-miterlimit="10" d="m377.63 374.43 1-.2a3 3 0 0 1 2.71.89l3 3.24a2.203 2.203 0 0 1 .23 2.7l-1 1.36-.27-.3"></path><path fill="#FF8538" d="M377.15 377.4h.51a3.514 3.514 0 0 1 2.64 1.21l2.78 3.2a2.003 2.003 0 0 1-.16 2.76 1.992 1.992 0 0 1-1.62.5l-1.28-.18a1.571 1.571 0 0 1-1.12-.74l-.16-.27a.87.87 0 0 1-.058-.782.876.876 0 0 1 .588-.518l.94-.24-2.58-.36"></path><path stroke="#1E1E1E" stroke-linecap="round" stroke-linejoin="round" d="M377.15 377.4h.51a3.514 3.514 0 0 1 2.64 1.21l2.78 3.2a2.003 2.003 0 0 1-.16 2.76 1.992 1.992 0 0 1-1.62.5l-1.28-.18a1.571 1.571 0 0 1-1.12-.74l-.16-.27a.87.87 0 0 1-.058-.782.876.876 0 0 1 .588-.518l.94-.24-2.58-.36"></path><path fill="#A4A4A4" d="M127.56 577.4h616.53v10.61H127.56V577.4z"></path><path fill="url(#wfh_af)" d="M127.56 577.4h616.53v1.7H127.56v-1.7z"></path><path fill="url(#wfh_ag)" d="m744.08 577.4-29.9-23.52H157.63l-30.07 23.52h616.52z"></path><path fill="#000" d="m248.51 553.88-4.37.76a1.33 1.33 0 0 0-1.1 1.3 1.321 1.321 0 0 0 1 1.28l39.5 9.83c1.479.362 2.997.547 4.52.55h6.47a10.142 10.142 0 0 0 10.13-10.13l65-1.93v-1.66H248.51zm208.63 7.9 2.19.82-9.5 7.6 11.64 7.2h-95.9l-9.11-7.55 100.68-8.07z" opacity="0.1"></path><path fill="#fff" d="m481.01 558.58 7.07 12.32 36.93-1.21-8.45-12.22-35.55 1.11z"></path><path fill="#7F7F7F" d="M356.46 566.85h89.03v2.99h-89.03v-2.99z"></path><path fill="#CDCDCD" d="m457.14 558.78-11.65 8.07h-89.03l11.65-8.07h89.03z"></path><path fill="url(#wfh_ah)" d="m429.26 507.15 16.23 59.7h-89.03l-16.23-59.7h89.03z"></path><path fill="#000" d="M603.29 570.2c12.559 0 22.74-1.701 22.74-3.8 0-2.099-10.181-3.8-22.74-3.8s-22.74 1.701-22.74 3.8c0 2.099 10.181 3.8 22.74 3.8z" opacity="0.15"></path><path fill="#1E1E1E" d="M467.13 559.57a.892.892 0 0 0-.49 1.16l2.28 5.67 1.66-.67-2.29-5.67a.883.883 0 0 0-.818-.559.889.889 0 0 0-.342.069z"></path><path fill="#A4A4A4" d="m457.14 558.78-11.65 8.07v3l11.65-8.07v-3z"></path><path stroke="#1E1E1E" stroke-linecap="round" stroke-miterlimit="10" stroke-width="0.77" d="m490.13 544.23 16.83-7.14"></path><path fill="#F5F5F5" d="m266.63 554.82 8.59-.94-4.92-2.37-3.46 1.39-.21 1.92z"></path><path fill="#000" d="M271.25 552a8.123 8.123 0 0 1-.1 2.35l4.07-.44-3.97-1.91z" opacity="0.3"></path><path fill="#DE1250" d="M235.41 499.26c-1-1.3-5.25-.8-5.41.79-.16 1.59 1.43 19.2 7.56 35s8.1 21.17 11.13 21.09c3.03-.08 17 .07 18.15-.8 1.15-.87-.5-7.46-1.36-11.41a124.682 124.682 0 0 0-3.24-12.93c-.95-2.47-12.34-11-12.34-11s-12.82-18.59-14.49-20.74z"></path><path fill="#1E1E1E" d="M245.75 544.54c-4.09-8.55-10.93-29.28-13.08-38-2.15-8.72-2.67-6.51-2.53-3.73a129.51 129.51 0 0 0 7.42 32.19c5.28 13.56 7.47 19.46 9.91 20.79 1.62.57 1.75-3.99-1.72-11.25z" opacity="0.3"></path><path fill="#DE1250" d="M282 529.83c-1-5.39-2.3-14.51-4.76-20.09s-14.82-28.08-16.89-31.82c-2.07-3.74-7.4-5.57-10.91-3.19-3.51 2.38-6.76 11.95-1.91 31.13s11.3 29.06 15.69 29.14a119.949 119.949 0 0 0 16.32-1.19 3.441 3.441 0 0 0 2.46-3.98z"></path><path fill="#1E1E1E" d="M268.21 515.14c-1.59-11.89-7.16-26.87-9.71-33.16-2.55-6.29-5.41-9.24-9.08-7.25-3.5 2.39-6.76 11.95-1.91 31.13s11.3 29.06 15.69 29.14c7.64 0 6.6-8 5.01-19.86z" opacity="0.3"></path><path stroke="#C836D7" stroke-linecap="round" stroke-miterlimit="10" d="M363.36 589.29c7.37 8.2 18.16 16.51 26.84 21.9a97.193 97.193 0 0 0 16.6 7.81m33.94-31s7.09 6 8.73 7.66m-127.59-58.28c-5.9-.39-11.9-.79-17.71-1.21-5.33-.38-10.5-.77-15.34-1.17"></path><path stroke="#1E1E1E" stroke-linecap="round" stroke-miterlimit="10" stroke-width="0.77" d="m603.29 511.59 2.15-.38m-4.45-7.49 1.56-1.11m-9.83.67-1.15-1.99m-2.29 14.3-1.78-1.11"></path><path fill="#F5F5F5" d="M618.83 538.19c0-2.14-9.23-3.88-20.62-3.88s-20.63 1.74-20.63 3.88c.003.1.027.199.07.29l5.67 25.83c0 1.55 6.66 2.81 14.89 2.81s14.89-1.26 14.89-2.81l5.67-25.83a.961.961 0 0 0 .06-.29z"></path><path fill="#1E1E1E" d="M598.21 540.91c9.422 0 17.06-1.218 17.06-2.72 0-1.502-7.638-2.72-17.06-2.72-9.422 0-17.06 1.218-17.06 2.72 0 1.502 7.638 2.72 17.06 2.72z"></path><path fill="#DE1250" d="M604.39 535.66v-26.77a8 8 0 1 0-16 0V536a90.281 90.281 0 0 1 9.81-.5c2.19-.03 4.28.04 6.19.16z"></path><path fill="#DE1250" d="M598.21 535.47a90.281 90.281 0 0 0-9.81.5v4.44c3.258.35 6.533.516 9.81.5 2.18 0 4.27-.07 6.18-.19v-5.06c-1.91-.12-4-.19-6.18-.19z"></path><path fill="url(#wfh_ai)" d="M605 531.4h-2.71a4.05 4.05 0 0 1-3-1.114 4.05 4.05 0 0 1-1.261-2.941 4.054 4.054 0 0 1 2.647-3.806 4.05 4.05 0 0 1 1.614-.249H605a.64.64 0 0 0 .64-.64v-6.49a4.06 4.06 0 0 1 8.11 0v6.49a8.749 8.749 0 0 1-8.75 8.75z"></path><path stroke="#1E1E1E" stroke-linecap="round" stroke-miterlimit="10" stroke-width="0.77" d="m589.63 530.5-2.46-1m5.89-8.35-1.71-2.37m-1.72 5.12-2.46-1.49m2.46-14.09-1.62-2.14m8.39-3.89.59-2.94m5.78 7.9 3.19-1.07m-11.49 1.55-1.19-2.08m4.92 5.12 1.09-2.23m-4.6 6.01-1.41-2.44m8.01 4.82 2-1.9m-5.08 4.94-.48-1.54m-3.74 8.8-.78-.14m2 6.37 1.19-1.33m6.89 2.18 2.67-.4"></path><path fill="#DE1250" d="M469.75 566.96a.89.89 0 1 0 .001-1.779.89.89 0 0 0-.001 1.779z"></path><path stroke="#1E1E1E" stroke-linecap="round" stroke-miterlimit="10" stroke-width="0.77" d="M451.31 492.98h-5.82"></path><path fill="url(#wfh_aj)" d="M396.799 540.197c.433-2.211-1.536-4.458-4.398-5.018-2.862-.56-5.533.779-5.965 2.99-.433 2.212 1.536 4.458 4.398 5.018 2.862.56 5.532-.779 5.965-2.99z"></path><path fill="#000" d="M545.18 563.44c5.214 0 9.44-1.07 9.44-2.39s-4.226-2.39-9.44-2.39c-5.214 0-9.44 1.07-9.44 2.39s4.226 2.39 9.44 2.39z" opacity="0.15"></path><path fill="url(#wfh_ak)" d="M544 547.81c-4 0-7.31.63-7.31 1.4v11.21c0 .77 3.27 1.92 7.31 1.92 4.04 0 7.31-1.15 7.31-1.92v-11.21c-.01-.77-3.31-1.4-7.31-1.4z"></path><path fill="#1E1E1E" d="M549.29 549.51a24.09 24.09 0 0 0-10.6 0c3.49.787 7.11.787 10.6 0z"></path><path fill="#000" d="m549.23 553.77 2.1 2.09v-2.38l-2.1.29zm0 5.22 2.1 1.33v-1.62l-2.1.29z" opacity="0.15"></path><path stroke="#E8E8E8" stroke-linecap="round" stroke-miterlimit="10" stroke-width="2.33" d="M549.88 552.78h1.18a1.918 1.918 0 0 1 1.94 1.92v1.42a1.921 1.921 0 0 1-1.92 1.92h-1.18"></path><path fill="url(#wfh_al)" d="m590.89 35.38-.11 8.19 7.11-.12-.07-8.23-6.93.16z"></path><path fill="url(#wfh_am)" d="m601.02 31.04-.09 12.29 7.11-.12-.09-12.53-6.93.36z"></path><path fill="url(#wfh_an)" d="m611.13 22.66-.05 20.43 7.12-.12-.14-20.66-6.93.35z"></path><path fill="url(#wfh_ao)" d="m621.31 28.95-.08 13.9 7.12-.12-.1-14.14-6.94.36z"></path><path fill="url(#wfh_ap)" d="m631.4 15.2-.02 27.42 7.12-.12-.17-27.65-6.93.35z"></path><path stroke="#CECECE" stroke-linecap="round" stroke-miterlimit="10" stroke-width="0.93" d="m643.23 26.66 16.32-.56m-16.37 4.28 16.16-.47m-16.2 4.19 15.98-.38m-16.03 4.1 15.82-.3m-15.87 4.02 15.65-.21"></path><path fill="url(#wfh_aq)" d="m769.21 184.53-1.6 18.07s39.29.21 51 .8l1.28-18.87h-50.68z"></path><path stroke="#CECECE" stroke-linecap="round" stroke-miterlimit="10" stroke-width="0.93" d="m766.85 215.77-1.09 12.45m9.47-16.72-1.67 16.95m8.26-4.91-.47 4.96m8.63-7.74-.83 7.97m9.4-14.77-1.6 14.82m9.98-18.49-2.18 18.72m9.73-13.83-1.93 14.06m9.32-10.44-1.53 10.86m10.65-20.05-2.85 20.47m9.4-10.98-1.6 11.22"></path><path fill="url(#wfh_ar)" d="M809.687 73.135c4.664-9.245 2.885-19.545-3.974-23.005-6.859-3.46-16.2 1.23-20.864 10.475-4.664 9.246-2.885 19.545 3.974 23.006 6.859 3.46 16.2-1.23 20.864-10.476z"></path><path fill="url(#wfh_as)" d="M843.739 69.577c4.824-9.561 3.285-20.06-3.435-23.451-6.721-3.39-16.08 1.611-20.903 11.172-4.823 9.562-3.285 20.06 3.436 23.451 6.721 3.39 16.079-1.611 20.902-11.172z"></path><path fill="#F5F5F5" d="m876.1 93.3.4-3.18-4.48-.68-.29 3.12 4.37.74z"></path><defs><linearGradient id="wfh_a" x1="27.52" x2="65.27" y1="-28.18" y2="151.04" gradientUnits="userSpaceOnUse"><stop stop-color="#FF8538"></stop><stop offset="1" stop-color="#E9E9E9"></stop></linearGradient><linearGradient id="wfh_b" x1="391.42" x2="391.42" y1="175.6" y2="-21.87" gradientUnits="userSpaceOnUse"><stop stop-color="#BCBCBC"></stop><stop offset="1" stop-color="#B93DFE"></stop></linearGradient><linearGradient id="wfh_d" x1="356.42" x2="423.72" y1="196.2" y2="196.2" gradientUnits="userSpaceOnUse"><stop stop-color="#1C48C0"></stop><stop offset="1" stop-color="#BA3DFE"></stop></linearGradient><linearGradient id="wfh_e" x1="381.909" x2="381.835" y1="166.228" y2="160.409" gradientUnits="userSpaceOnUse"><stop stop-color="#FF8538"></stop><stop offset="1" stop-color="#F5F5F5"></stop></linearGradient><linearGradient id="wfh_f" x1="392.636" x2="392.563" y1="166.093" y2="160.274" gradientUnits="userSpaceOnUse"><stop stop-color="#FF8538"></stop><stop offset="1" stop-color="#F5F5F5"></stop></linearGradient><linearGradient id="wfh_g" x1="441.22" x2="441.22" y1="64.05" y2="97.67" gradientUnits="userSpaceOnUse"><stop stop-color="#FF8538"></stop><stop offset="1" stop-color="#BCBCBC"></stop></linearGradient><linearGradient id="wfh_h" x1="463.67" x2="463.67" y1="86.56" y2="95.7" gradientUnits="userSpaceOnUse"><stop stop-color="#FF8538"></stop><stop offset="1" stop-color="#BCBCBC"></stop></linearGradient><linearGradient id="wfh_i" x1="648.93" x2="648.93" y1="84.6" y2="118.56" gradientUnits="userSpaceOnUse"><stop stop-color="#FF8538"></stop><stop offset="1" stop-color="#BCBCBC"></stop></linearGradient><linearGradient id="wfh_j" x1="660.88" x2="660.88" y1="84.6" y2="118.56" gradientUnits="userSpaceOnUse"><stop stop-color="#FF8538"></stop><stop offset="1" stop-color="#BCBCBC"></stop></linearGradient><linearGradient id="wfh_k" x1="594.184" x2="595.383" y1="-4.525" y2="22.309" gradientUnits="userSpaceOnUse"><stop stop-color="#FF8538"></stop><stop offset="1" stop-color="#BCBCBC"></stop></linearGradient><linearGradient id="wfh_l" x1="820.75" x2="865.27" y1="403.84" y2="114.47" gradientUnits="userSpaceOnUse"><stop stop-color="#BCBCBC"></stop><stop offset="1" stop-color="#B93DFE"></stop></linearGradient><linearGradient id="wfh_m" x1="430.92" x2="352.13" y1="506.86" y2="506.86" gradientUnits="userSpaceOnUse"><stop stop-color="#F5F5F5"></stop><stop offset="1" stop-color="#D1D1D1"></stop></linearGradient><linearGradient id="wfh_n" x1="624.01" x2="618.84" y1="194.15" y2="173.2" gradientUnits="userSpaceOnUse"><stop stop-color="#FF1D4B"></stop><stop offset="1" stop-color="#B93DFE"></stop></linearGradient><linearGradient id="wfh_o" x1="525.67" x2="596.871" y1="181.67" y2="181.67" gradientUnits="userSpaceOnUse"><stop stop-color="#FF1D4B"></stop><stop offset="1" stop-color="#B93DFE"></stop></linearGradient><linearGradient id="wfh_p" x1="525.67" x2="596.869" y1="183.32" y2="183.32" gradientUnits="userSpaceOnUse"><stop stop-color="#FF1D4B"></stop><stop offset="1" stop-color="#B93DFE"></stop></linearGradient><linearGradient id="wfh_q" x1="525.67" x2="596.87" y1="182.81" y2="182.81" gradientUnits="userSpaceOnUse"><stop stop-color="#FF1D4B"></stop><stop offset="1" stop-color="#B93DFE"></stop></linearGradient><linearGradient id="wfh_r" x1="525.67" x2="596.87" y1="181.67" y2="181.67" gradientUnits="userSpaceOnUse"><stop stop-color="#FF1D4B"></stop><stop offset="1" stop-color="#B93DFE"></stop></linearGradient><linearGradient id="wfh_s" x1="525.67" x2="596.87" y1="180.21" y2="180.21" gradientUnits="userSpaceOnUse"><stop stop-color="#FF1D4B"></stop><stop offset="1" stop-color="#B93DFE"></stop></linearGradient><linearGradient id="wfh_t" x1="525.67" x2="596.87" y1="178.84" y2="178.84" gradientUnits="userSpaceOnUse"><stop stop-color="#FF1D4B"></stop><stop offset="1" stop-color="#B93DFE"></stop></linearGradient><linearGradient id="wfh_u" x1="525.67" x2="596.871" y1="183.95" y2="183.95" gradientUnits="userSpaceOnUse"><stop stop-color="#FF1D4B"></stop><stop offset="1" stop-color="#B93DFE"></stop></linearGradient><linearGradient id="wfh_v" x1="225.45" x2="227.84" y1="-6.27" y2="21.01" gradientUnits="userSpaceOnUse"><stop stop-color="#FF8538"></stop><stop offset="1" stop-color="#BCBCBC"></stop></linearGradient><linearGradient id="wfh_x" x1="233.66" x2="233.926" y1="49.367" y2="2.571" gradientUnits="userSpaceOnUse"><stop stop-color="#BCBCBC"></stop><stop offset="1" stop-color="#B93DFE"></stop></linearGradient><linearGradient id="wfh_y" x1="231.116" x2="228.515" y1="34.654" y2="-3.379" gradientUnits="userSpaceOnUse"><stop stop-color="#BCBCBC"></stop><stop offset="1" stop-color="#B93DFE"></stop></linearGradient><linearGradient id="wfh_z" x1="310.46" x2="316.1" y1="36.43" y2="87.64" gradientUnits="userSpaceOnUse"><stop stop-color="#FF8538"></stop><stop offset="1" stop-color="#BCBCBC"></stop></linearGradient><linearGradient id="wfh_A" x1="515.51" x2="515.51" y1="312.35" y2="335.17" gradientUnits="userSpaceOnUse"><stop stop-color="#FF8538"></stop><stop offset="1" stop-color="#BCBCBC"></stop></linearGradient><linearGradient id="wfh_C" x1="503.97" x2="502.086" y1="299.512" y2="270.092" gradientUnits="userSpaceOnUse"><stop stop-color="#E9E9E9"></stop><stop offset="1" stop-color="#FF8538"></stop></linearGradient><linearGradient id="wfh_D" x1="504.13" x2="500.98" y1="290.5" y2="267.04" gradientUnits="userSpaceOnUse"><stop stop-color="#E9E9E9"></stop><stop offset="1" stop-color="#FF8538"></stop></linearGradient><linearGradient id="wfh_E" x1="535.85" x2="535.85" y1="312.35" y2="335.17" gradientUnits="userSpaceOnUse"><stop stop-color="#FF8538"></stop><stop offset="1" stop-color="#BCBCBC"></stop></linearGradient><linearGradient id="wfh_G" x1="524.08" x2="522.195" y1="299.51" y2="270.099" gradientUnits="userSpaceOnUse"><stop stop-color="#E9E9E9"></stop><stop offset="1" stop-color="#FF8538"></stop></linearGradient><linearGradient id="wfh_H" x1="524.24" x2="521.09" y1="290.5" y2="267.04" gradientUnits="userSpaceOnUse"><stop stop-color="#E9E9E9"></stop><stop offset="1" stop-color="#FF8538"></stop></linearGradient><linearGradient id="wfh_I" x1="669.06" x2="669.06" y1="153.89" y2="53.35" gradientUnits="userSpaceOnUse"><stop stop-color="#BCBCBC"></stop><stop offset="1" stop-color="#B93DFE"></stop></linearGradient><linearGradient id="wfh_J" x1="665.64" x2="665.64" y1="257.67" y2="123.17" gradientUnits="userSpaceOnUse"><stop stop-color="#BCBCBC"></stop><stop offset="1" stop-color="#B93DFE"></stop></linearGradient><linearGradient id="wfh_K" x1="665.7" x2="665.7" y1="212.74" y2="250.41" gradientUnits="userSpaceOnUse"><stop stop-color="#BCBCBC"></stop><stop offset="1" stop-color="#B93DFE"></stop></linearGradient><linearGradient id="wfh_L" x1="680.779" x2="680.504" y1="271.77" y2="299.336" gradientUnits="userSpaceOnUse"><stop stop-color="#FF8538"></stop><stop offset="1" stop-color="#BCBCBC"></stop></linearGradient><linearGradient id="wfh_M" x1="696.57" x2="696.57" y1="278.92" y2="300.85" gradientUnits="userSpaceOnUse"><stop stop-color="#FF8538"></stop><stop offset="1" stop-color="#BCBCBC"></stop></linearGradient><linearGradient id="wfh_N" x1="704.83" x2="704.83" y1="279.25" y2="300.85" gradientUnits="userSpaceOnUse"><stop stop-color="#FF8538"></stop><stop offset="1" stop-color="#BCBCBC"></stop></linearGradient><linearGradient id="wfh_O" x1="184.85" x2="181.11" y1="128.53" y2="105.49" gradientUnits="userSpaceOnUse"><stop stop-color="#BCBCBC"></stop><stop offset="1" stop-color="#B93DFE"></stop></linearGradient><linearGradient id="wfh_P" x1="207.55" x2="201.77" y1="165.91" y2="129.17" gradientUnits="userSpaceOnUse"><stop stop-color="#BCBCBC"></stop><stop offset="1" stop-color="#B93DFE"></stop></linearGradient><linearGradient id="wfh_Q" x1="120.337" x2="189.307" y1="204.937" y2="216.827" gradientUnits="userSpaceOnUse"><stop stop-color="#FF8538"></stop><stop offset="1" stop-color="#BCBCBC"></stop></linearGradient><linearGradient id="wfh_R" x1="120.706" x2="189.676" y1="202.783" y2="214.673" gradientUnits="userSpaceOnUse"><stop stop-color="#FF8538"></stop><stop offset="1" stop-color="#BCBCBC"></stop></linearGradient><linearGradient id="wfh_S" x1="121.167" x2="190.147" y1="200.475" y2="212.365" gradientUnits="userSpaceOnUse"><stop stop-color="#FF8538"></stop><stop offset="1" stop-color="#BCBCBC"></stop></linearGradient><linearGradient id="wfh_T" x1="444.42" x2="307.09" y1="265.36" y2="244.66" gradientUnits="userSpaceOnUse"><stop stop-color="#FF8538"></stop><stop offset="1" stop-color="#BCBCBC"></stop></linearGradient><linearGradient id="wfh_U" x1="132.93" x2="247.98" y1="231.73" y2="231.73" gradientUnits="userSpaceOnUse"><stop stop-color="#BCBCBC"></stop><stop offset="1" stop-color="#B93DFE"></stop></linearGradient><linearGradient id="wfh_V" x1="437.09" x2="437.09" y1="655.43" y2="731.87" gradientUnits="userSpaceOnUse"><stop stop-color="#F5F5F5"></stop><stop offset="1" stop-color="#D1D1D1"></stop></linearGradient><linearGradient id="wfh_W" x1="395.46" x2="395.46" y1="674.63" y2="704.21" gradientUnits="userSpaceOnUse"><stop stop-color="#F5F5F5"></stop><stop offset="1" stop-color="#D1D1D1"></stop></linearGradient><linearGradient id="wfh_X" x1="457.62" x2="457.62" y1="674.63" y2="704.21" gradientUnits="userSpaceOnUse"><stop stop-color="#F5F5F5"></stop><stop offset="1" stop-color="#D1D1D1"></stop></linearGradient><linearGradient id="wfh_Y" x1="477.45" x2="477.45" y1="655.429" y2="731.87" gradientUnits="userSpaceOnUse"><stop stop-color="#F5F5F5"></stop><stop offset="1" stop-color="#D1D1D1"></stop></linearGradient><linearGradient id="wfh_Z" x1="428.12" x2="428.12" y1="656.32" y2="635.72" gradientUnits="userSpaceOnUse"><stop stop-color="#F5F5F5"></stop><stop offset="1" stop-color="#D1D1D1"></stop></linearGradient><linearGradient id="wfh_aa" x1="456.48" x2="456.48" y1="560.03" y2="714.81" gradientUnits="userSpaceOnUse"><stop stop-color="#1E1E1E"></stop><stop offset="1" stop-color="#B93DFE"></stop></linearGradient><linearGradient id="wfh_ab" x1="385.94" x2="396.07" y1="359.11" y2="315" gradientUnits="userSpaceOnUse"><stop stop-color="#BCBCBC"></stop><stop offset="1" stop-color="#B93DFE"></stop></linearGradient><linearGradient id="wfh_ac" x1="499.59" x2="499.59" y1="419.2" y2="594.73" gradientUnits="userSpaceOnUse"><stop stop-color="#FF1D4B"></stop><stop offset="1" stop-color="#B93DFE"></stop></linearGradient><linearGradient id="wfh_ad" x1="666.55" x2="666.55" y1="951.36" y2="946.13" gradientUnits="userSpaceOnUse"><stop stop-color="#FF8538"></stop><stop offset="1" stop-color="#F5F5F5"></stop></linearGradient><linearGradient id="wfh_ae" x1="679.82" x2="679.82" y1="951.36" y2="946.13" gradientUnits="userSpaceOnUse"><stop stop-color="#FF8538"></stop><stop offset="1" stop-color="#F5F5F5"></stop></linearGradient><linearGradient id="wfh_af" x1="725.65" x2="289.67" y1="578.26" y2="578.26" gradientUnits="userSpaceOnUse"><stop stop-color="#F5F5F5"></stop><stop offset="1" stop-color="#D1D1D1"></stop></linearGradient><linearGradient id="wfh_ag" x1="61.96" x2="680.86" y1="565.64" y2="565.64" gradientUnits="userSpaceOnUse"><stop stop-color="#F5F5F5"></stop><stop offset="1" stop-color="#D1D1D1"></stop></linearGradient><linearGradient id="wfh_ah" x1="392.86" x2="392.86" y1="591.26" y2="501.75" gradientUnits="userSpaceOnUse"><stop stop-color="#F5F5F5"></stop><stop offset="1" stop-color="#D1D1D1"></stop></linearGradient><linearGradient id="wfh_ai" x1="605.96" x2="605.96" y1="514.03" y2="546.25" gradientUnits="userSpaceOnUse"><stop stop-color="#FF1D4B"></stop><stop offset="1" stop-color="#B93DFE"></stop></linearGradient><linearGradient id="wfh_aj" x1="391.656" x2="391.656" y1="556.97" y2="523.99" gradientUnits="userSpaceOnUse"><stop stop-color="#FF1D4B"></stop><stop offset="1" stop-color="#B93DFE"></stop></linearGradient><linearGradient id="wfh_ak" x1="543.99" x2="543.99" y1="541.75" y2="577.96" gradientUnits="userSpaceOnUse"><stop stop-color="#F5F5F5"></stop><stop offset="1" stop-color="#D1D1D1"></stop></linearGradient><linearGradient id="wfh_al" x1="595.081" x2="595.081" y1="41.82" y2="0.99" gradientUnits="userSpaceOnUse"><stop stop-color="#BCBCBC"></stop><stop offset="1" stop-color="#B93DFE"></stop></linearGradient><linearGradient id="wfh_am" x1="605.264" x2="605.264" y1="41.82" y2="0.99" gradientUnits="userSpaceOnUse"><stop stop-color="#BCBCBC"></stop><stop offset="1" stop-color="#B93DFE"></stop></linearGradient><linearGradient id="wfh_an" x1="615.437" x2="615.437" y1="41.82" y2="0.99" gradientUnits="userSpaceOnUse"><stop stop-color="#BCBCBC"></stop><stop offset="1" stop-color="#B93DFE"></stop></linearGradient><linearGradient id="wfh_ao" x1="625.62" x2="625.62" y1="41.82" y2="0.99" gradientUnits="userSpaceOnUse"><stop stop-color="#BCBCBC"></stop><stop offset="1" stop-color="#B93DFE"></stop></linearGradient><linearGradient id="wfh_ap" x1="635.803" x2="635.803" y1="41.82" y2="0.99" gradientUnits="userSpaceOnUse"><stop stop-color="#BCBCBC"></stop><stop offset="1" stop-color="#B93DFE"></stop></linearGradient><linearGradient id="wfh_aq" x1="737.04" x2="875.99" y1="170.1" y2="227.59" gradientUnits="userSpaceOnUse"><stop stop-color="#BCBCBC"></stop><stop offset="1" stop-color="#B93DFE"></stop></linearGradient><linearGradient id="wfh_ar" x1="797.267" x2="797.267" y1="-16.092" y2="71.448" gradientUnits="userSpaceOnUse"><stop stop-color="#FF8538"></stop><stop offset="1" stop-color="#BCBCBC"></stop></linearGradient><linearGradient id="wfh_as" x1="831.574" x2="831.574" y1="-16.088" y2="71.452" gradientUnits="userSpaceOnUse"><stop stop-color="#FF8538"></stop><stop offset="1" stop-color="#BCBCBC"></stop></linearGradient></defs></svg>